<?xml version="1.0" encoding="utf-8"?>
<!-- Generator: Adobe Illustrator 25.2.3, SVG Export Plug-In . SVG Version: 6.00 Build 0)  -->
<svg version="1.1" id="Layer_1" xmlns="http://www.w3.org/2000/svg" xmlns:xlink="http://www.w3.org/1999/xlink" x="0px" y="0px"
	 viewBox="0 0 1920 1080" style="enable-background:new 0 0 1920 1080;" xml:space="preserve">
<style type="text/css">
	.st0{fill:none;stroke:#5E2217;stroke-width:3;stroke-miterlimit:10;}
	.st1{fill:#FCF8D5;stroke:#000000;stroke-miterlimit:10;}
	.st2{fill:#FCF8D5;stroke:#5E2217;stroke-width:3;stroke-miterlimit:10;}
	.st3{fill:#FCF8D5;stroke:#5E2217;stroke-width:4;stroke-linejoin:round;stroke-miterlimit:10;}
	.st4{fill:#FFFFFF;}
	.st5{stroke:#5E2217;stroke-miterlimit:10;}
	.st6{fill:#FCF8D5;}
	.st7{fill:#FCF8D5;stroke:#5E2217;stroke-miterlimit:10;}
</style>
<g>
	<g>
		<path class="st0" d="M1026.62,485.66c1.84,0.34,3.5,0.82,5.18,0.93c11.68,0.76,23.44,0.78,35.01,2.31
			c18.42,2.42,35.4-3.13,52.51-8.35c10.52-3.21,17.26-1.52,27.74-4.86c5.77-1.84,10.6,0.23,16.43-1.43c-1-1.1-2.03-1.76-3.09-1.83
			c-6.98-0.48-13.98-1.3-20.95-1.14c-19.66,0.45-39.3,1.54-58.95,1.94c-10.43,0.21-20.75-1.12-30.58-5.26
			c-1.81-0.76-4.11-0.33-6.19-0.44c-0.11,0.36-0.22,0.71-0.34,1.07c0.52,0.71,1.03,1.42,1.55,2.12c5.55,7.36,15.8,5.67,21.27,13.09
			c0.78,1.05,0.96,2.56,1.42,3.86c-0.35,0.2-0.7,0.4-1.05,0.6c-0.81-0.75-1.77-1.39-2.39-2.27c-4.37-6.18-12.25-7.02-16.61-13.21
			c-3.01-4.28-7.79-4.58-13-5.13c-9.27-0.97-18.74-2.16-27.92-1.21c-8.58,0.89-16.86,4.6-25.35,6.76c-15.3,3.88-26-1.5-41.34,2.27
			c-2.01,0.49-3.98,1.13-6.6,1.88c29.35,2.57,57.83,5.06,85.93,7.52c2.08-5.44,0.05-5.42,2.53-10.35c2.42-4.81,5.18-4.97,11.12-4.4
			c1.61,0.15,3.93,1.29,4.42,2.58c0.59,1.54,1.11,0.45,0.17,1.96c-1.07,1.72,0.54-2.58-1.12-1.27
			C1032.39,476.59,1028.05,479.52,1026.62,485.66z M1126.56,552.69c-0.32-3.14-0.65-6.22-0.95-9.3c-0.52-5.38-3.59-8.66-8.34-10.43
			c-2.52-0.94-5.11-1.86-7.74-2.27c-7.39-1.16-14.79-2.29-22.22-3c-20.26-1.93-40.53-3.61-60.8-5.44c-2.12-0.19-2.96,0.54-3.09,2.71
			c-0.49,8.48-1.05,16.95-1.66,25.41c-0.15,2.1,0.58,2.9,2.67,3.23c25.53,3.96,51.04,8.08,76.58,11.99
			c5.65,0.86,11.39,1.28,17.1,1.41c5,0.12,6.46-1.26,7.5-6.15C1126.18,558.17,1126.26,555.41,1126.56,552.69z M1019.53,487.19
			c-1.4-0.24-2.41-0.47-3.43-0.58c-17.92-1.79-35.82-3.69-53.75-5.28c-9.32-0.82-18.68-1.31-28.02-1.45
			c-2.94-0.04-6.47,0.74-8.75,2.49c-8.32,6.41-8.7,24.78,4.61,28.86c3.73,1.14,7.74,2.05,10.3,5.64c0.32,0.45,1.41,0.49,2.14,0.46
			c6.53-0.26,13.07-1.08,19.58-0.8c17.3,0.76,34.58,1.94,51.85,3.11c2.83,0.19,3.65-0.6,3.67-3.45c0.04-5.25,0.45-10.51,0.78-15.76
			C1018.79,496.08,1019.18,491.72,1019.53,487.19z M1175.51,473.69c-11.01,1.88-20.91,3.55-30.81,5.28
			c-13.57,2.36-27.3,3.84-40.39,8.68c-4.01,1.48-8.43,1.75-12.61,2.82c-7.63,1.97-12.97,6.28-11.49,14.98
			c1.79,10.56,7.8,16.63,19,18.4c13.33,2.11,25.66-2,37.96-6.37c12.04-4.28,23.25-11.43,36.66-10.86
			C1174.41,495.51,1174.96,484.67,1175.51,473.69z M1128.03,559.03c-0.33,1.04-0.57,1.72-0.75,2.4c-1.44,5.35-2.89,6.71-8.23,7.04
			c-2.79,0.17-5.65,0.22-8.41-0.16c-12.39-1.68-24.78-3.42-37.14-5.35c-16.3-2.53-32.58-5.21-48.85-7.95
			c-2.43-0.41-3.72,0.13-3.65,2.7c0.2,7.27,0.38,14.55,0.87,21.8c0.07,0.97,1.78,2.5,2.85,2.62c16.52,1.82,33.06,3.32,49.58,5.18
			c11.39,1.28,22.73,3.05,34.1,4.49c4.84,0.61,9.71,1.27,14.57,1.31c5.42,0.04,6.24-1.4,4.68-6.56c-1.53-5.08-1.13-9.42,3.19-13.27
			c1.48-1.32,2.43-4.62,1.93-6.57C1132.1,564.03,1129.82,561.77,1128.03,559.03z M1025.99,487.87c-0.3,1.81-0.75,3.53-0.85,5.28
			c-0.43,6.93-0.77,13.86-1.1,20.79c-0.32,6.6-0.29,6.6,6.09,7.17c0.12,0.01,0.23,0.01,0.35,0.02c22.74,1.99,45.49,3.76,68.2,6.07
			c9.79,0.99,19.9,1.9,27.28,10.3c0.34-0.65,0.69-1.05,0.75-1.49c0.88-6.13,4.57-9.92,10.04-11.73c6.09-2.01,12.41-3.3,18.52-5.29
			c5.98-1.95,11.84-4.31,17.67-6.68c0.85-0.34,1.29-1.73,1.92-2.64c-0.96-0.48-1.94-1.41-2.87-1.36c-3.01,0.17-6.18,0.19-8.98,1.17
			c-9.94,3.48-19.75,7.32-29.6,11.05c-11.95,4.53-24.15,6.3-36.89,4.48c-15.53-2.22-24.59-24.34-12.62-33.5
			C1064.59,490.3,1045.42,489.09,1025.99,487.87z M961.63,551.32c7.49-3.28,14.29-3.3,21.05-2.71c10.72,0.93,21.41,2.12,32.09,3.45
			c2.83,0.35,3.5-0.42,3.38-3.14c-0.28-6.1-0.35-12.2-0.47-18.31c-0.05-2.84-0.01-5.68-0.01-8.87c-4.62-0.32-8.81-0.64-13-0.88
			c-17.17-0.98-34.35-2.01-51.53-2.82c-3.35-0.16-6.75,0.52-10.1,1.03c-0.83,0.13-1.95,1-2.2,1.77c-0.97,3.06-1.77,6.18-2.38,9.34
			c-0.8,4.14,0.56,6.18,4.68,6.69c3.01,0.38,6.08,0.12,9.12,0.28c3.47,0.18,6.28,1.65,8.12,4.79c0.77,1.3,1.6,2.56,2.38,3.79
			C962.47,547.21,962.16,548.75,961.63,551.32z M983.48,550.1c-5.25,0.24-10.04,0.29-14.8,0.73c-5.51,0.51-6.84,2.3-6.35,7.87
			c0.15,1.66,0.61,3.3,0.71,4.96c0.26,4.14,2.22,7.11,5.95,8.51c4.15,1.56,8.37,3.2,12.7,3.95c10.81,1.88,21.71,3.26,32.57,4.9
			c2.03,0.31,2.84-0.66,2.97-2.5c0.48-7.02,0.91-14.04,1.39-21.06c0.18-2.6-1.04-3.53-3.48-3.79
			C1004.44,552.54,993.76,551.27,983.48,550.1z M1135.78,591.73c2.25-1.12,4.43-2.76,6.85-3.31c13.55-3.11,27.1-6.21,40.76-8.76
			c4.46-0.83,8.07-2.56,9.74-6.49c1.14-2.68,1.1-6.33,0.33-9.19c-0.31-1.15-3.96-1.46-6.13-1.93c-1.11-0.24-2.34-0.08-3.49,0.08
			c-8.21,1.16-16.48,2.02-24.6,3.66c-7.3,1.48-14.45,3.75-21.62,5.86c-1.48,0.44-3.22,1.39-3.98,2.65
			C1131.34,578.05,1132.73,587.99,1135.78,591.73z M1141.24,558.4c0.22,0.58,0.44,1.15,0.65,1.73c19.39,0.08,36.76-8.78,55.16-13.11
			c-6.39-1.17-6.52-1.37-4.54-7.66c0.18-0.57,0.54-1.11,0.58-1.68c0.23-3.56,0.39-7.13,0.57-10.69c-0.58-0.05-1.15-0.09-1.73-0.14
			c-0.35,3.22-0.8,6.42-1.04,9.65c-0.59,8.04-2.07,9.76-9.84,11.41c-9.94,2.12-19.91,4.15-29.79,6.54
			C1147.81,555.28,1144.57,557.05,1141.24,558.4z M1136,567.28c3.65-0.23,7-0.05,10.17-0.73c6.16-1.31,12.21-3.13,18.32-4.69
			c10.18-2.6,20.41-5.06,30.55-7.82c2.59-0.71,4.94-2.34,7.4-3.55c-0.15-0.51-0.29-1.01-0.44-1.52c-1.44,0-2.96-0.31-4.31,0.05
			c-7.55,2.02-15.07,4.19-22.59,6.35c-10.66,3.05-21.21,6.98-32.51,6.11C1138.65,561.16,1137.05,562.77,1136,567.28z
			 M1175.99,513.62c-6.48,2.25-12.36,4.48-18.36,6.33c-6.47,1.99-13.11,3.42-19.57,5.45c-7.15,2.24-10.78,8.02-9.65,14.76
			c1.83-2.44,3.35-5.14,5.46-7.18c7.39-7.13,17.1-8.41,26.49-10.11c8.61-1.56,17.35-2.39,26.02-3.62c1.26-0.18,2.47-0.77,4.42-1.4
			C1185.57,514.65,1178.83,520.22,1175.99,513.62z M1023.35,585.16c-0.21,0.37-0.43,0.73-0.64,1.1c1.12,0.62,2.19,1.58,3.38,1.79
			c4.49,0.79,9,1.46,13.53,1.96c13.83,1.53,27.66,3.08,41.52,4.4c9.54,0.91,19.12,1.46,28.68,2.09c1.2,0.08,2.44-0.37,4.61-0.72
			C1083.32,592.15,1053.33,588.65,1023.35,585.16z M921.56,481.96c-1.36,1.34-2.77,2.39-3.77,3.75c-4.12,5.67-4.74,12.3-4.73,19.08
			c0.01,3.64,1.78,5.84,5.18,6.67c2.95,0.72,5.93,1.34,8.9,1.97c4.87,1.03,6.57,3.61,5.56,8.46c-0.32,1.56-0.58,3.12-0.88,4.73
			c2.01-2.39,3.77-4.77,5.83-6.83c1.86-1.85,0.96-3.03-0.64-3.9c-1.94-1.05-4.04-1.84-6.12-2.59c-9.12-3.29-12.97-8.41-12.48-18.24
			C918.63,490.86,920.37,486.73,921.56,481.96z M1129.96,478.58c0.09,0.38,0.18,0.76,0.27,1.13c5.45-0.95,10.9-1.89,16.35-2.84
			c8.4-1.46,13.19,2.54,21.59,1.02c2.89-0.52,3.46-1.84,1.5-4.01c-0.89-0.99-2.85-1.71-4.12-1.46c-4.35,0.84-8.64,2.05-12.9,3.34
			C1143.86,478.44,1138.73,475.83,1129.96,478.58z M1021.99,483.79c0.19,0.28,0.61,1.47,1.08,1.5c0.68,0.03,1.79-0.63,2.04-1.28
			c2.07-5.26,2.36-3.31,6.78-6.39c1.53-1.07,3.07-2.28,4.2-3.75c0.76-0.99,0.49,0.5,0.01-0.12c-0.86-1.13-2.92-2.42-3.98-2.07
			c-2.78,0.93-4.75-1.41-6.74,0.65C1021.15,476.72,1023.23,477.18,1021.99,483.79z M958.02,542.44c0.15-0.33,0.31-0.66,0.46-0.99
			c-1.59-0.78-3.12-2.01-4.78-2.24c-3.33-0.47-6.75-0.29-10.12-0.56c-5.23-0.43-7.48-3.44-6.58-8.72c0.43-2.55,1.06-5.06,1.65-7.83
			c-4.03,2.02-6.64,8.17-5.62,13.72c0.27,1.46,1.96,3.54,3.26,3.76C943.48,540.8,950.76,541.53,958.02,542.44z M1174.55,583.56
			c-8.87-0.91-34.47,6.3-37.05,10.93C1150.7,591.91,1162.44,587.04,1174.55,583.56z M1019.47,511.1c0,2.42-0.17,4.11,0.06,5.75
			c0.15,1.07,0.88,2.06,1.35,3.08c0.5-1.03,1.37-2.03,1.43-3.09c0.55-8.68,0.98-17.36,1.35-26.05c0.05-1.11-0.46-2.25-0.72-3.38
			c-0.69,1.02-1.88,1.99-1.98,3.07C1020.32,497.59,1019.91,504.72,1019.47,511.1z M1180.24,559.94c5.24,0.55,10.41,1.09,15.47,1.62
			c0.92-1.88,2.12-4.33,3.39-6.92C1192.68,556.43,1186.45,558.19,1180.24,559.94z M1016.03,585.02c-0.13-0.46-0.26-0.93-0.39-1.39
			c-6.98-1.07-13.95-2.15-20.93-3.22c5.89,2.64,11.95,4.6,18.09,6.25C1013.68,586.89,1014.95,585.6,1016.03,585.02z M1019.47,542.93
			c0.38,0.02,0.75,0.03,1.13,0.05c0.5-6.44,1.03-12.88,1.42-19.33c0.03-0.5-0.89-1.07-1.36-1.6c-0.39,0.47-1.13,0.93-1.13,1.4
			C1019.44,529.94,1019.47,536.43,1019.47,542.93z M1196.63,565.55c-1.2,4.09-2.48,8.46-3.74,12.75c4.68,0.86,5.9-0.16,5.21-5.38
			C1197.75,570.26,1197.06,567.65,1196.63,565.55z M958.13,546.4c0.1-0.63,0.2-1.27,0.29-1.9c-5.71-0.9-11.42-1.8-17.12-2.7
			c-0.09,0.57-0.18,1.13-0.26,1.7C946.73,544.47,952.43,545.44,958.13,546.4z M1136.63,560.92c-2.35-2.05-4.5-3.92-6.64-5.79
			c-0.29,0.16-0.59,0.31-0.88,0.47c1.44,3.24,2.89,6.47,4.33,9.71c0.37-0.07,0.74-0.15,1.12-0.22
			C1135.26,563.68,1135.96,562.28,1136.63,560.92z M1179.2,472.8c-2.71-2.34-5.31-1.94-8.08-1.04
			C1172.47,476.99,1174.29,477.3,1179.2,472.8z"/>
		<path class="st0" d="M1026.62,485.66c1.43-6.14,5.77-9.07,9.81-12.26c1.66-1.31,0.06,2.99,1.12,1.27
			c0.93-1.51,0.42-0.42-0.17-1.96c-0.49-1.29-2.81-2.42-4.42-2.58c-5.94-0.57-8.7-0.41-11.12,4.4c-2.48,4.93-0.45,4.91-2.53,10.35
			c-28.09-2.46-56.58-4.95-85.93-7.52c2.62-0.75,4.6-1.39,6.6-1.88c15.33-3.76,26.03,1.61,41.34-2.27
			c8.49-2.15,16.77-5.87,25.35-6.76c9.18-0.95,18.65,0.24,27.92,1.21c5.2,0.55,9.98,0.85,13,5.13c4.36,6.19,12.25,7.02,16.61,13.21
			c0.62,0.88,1.59,1.52,2.39,2.27c0.35-0.2,0.7-0.4,1.05-0.6c-0.46-1.3-21.9,0.63-22.68-0.43c-5.47-7.42,5.54-9.17-0.01-16.53
			c-0.53-0.7-1.04-1.41-1.55-2.12c0.11-0.36,0.22-0.71,0.34-1.07c2.07,0.12,4.37-0.32,6.19,0.44c9.83,4.13,20.15,5.47,30.58,5.26
			c19.62-4.3,39.28-4.32,58.95-1.94c6.97-0.16,13.97,0.66,20.95,1.14c1.07,0.07,2.09,0.73,3.09,1.83
			c-5.83,1.66-10.66-0.41-16.43,1.43c-10.48,3.34-17.22,1.65-27.74,4.86c-17.2,5.5-34.18,11.06-52.51,8.35
			c-11.58-1.52-23.34-1.55-35.01-2.31C1030.12,486.49,1028.46,486.01,1026.62,485.66z"/>
		<path class="st0" d="M1126.56,552.69c-0.3,2.72-0.38,5.49-0.95,8.15c-1.03,4.89-2.5,6.27-7.5,6.15
			c-5.71-0.13-11.45-0.55-17.1-1.41c-25.54-3.9-51.05-8.03-76.58-11.99c-2.09-0.32-2.82-1.12-2.67-3.23
			c0.61-8.47,1.17-16.94,1.66-25.41c0.12-2.16,0.97-2.9,3.09-2.71c20.26,1.84,40.54,3.52,60.8,5.44c7.44,0.71,14.84,1.84,22.22,3
			c2.63,0.41,5.22,1.33,7.74,2.27c4.75,1.77,7.83,5.05,8.34,10.43C1125.91,546.47,1126.24,549.55,1126.56,552.69z"/>
		<path class="st0" d="M1019.53,487.19c-0.35,4.53-0.74,8.89-1.02,13.26c-0.33,5.25-0.74,10.5-0.78,15.76
			c-0.02,2.85-0.84,3.64-3.67,3.45c-17.28-1.17-34.56-2.35-51.85-3.11c-6.5-0.29-13.05,0.53-19.58,0.8
			c-0.72,0.03-1.81-0.01-2.14-0.46c-2.57-3.59-6.57-4.5-10.3-5.64c-13.31-4.08-12.93-22.46-4.61-28.86
			c2.27-1.75,5.81-2.54,8.75-2.49c9.35,0.14,18.71,0.63,28.02,1.45c17.93,1.59,35.84,3.49,53.75,5.28
			C1017.13,486.72,1018.13,486.95,1019.53,487.19z"/>
		<path class="st0" d="M1175.51,473.69c-0.56,10.98-1.11,21.83-1.67,32.93c-13.41-0.57-24.62,6.58-36.66,10.86
			c-12.3,4.37-24.64,8.48-37.96,6.37c-11.21-1.77-17.21-7.84-19-18.4c-1.48-8.7,3.86-13.01,11.49-14.98
			c4.17-1.08,8.6-1.34,12.61-2.82c13.09-4.84,26.82-6.32,40.39-8.68C1154.6,477.24,1164.5,475.57,1175.51,473.69z"/>
		<path class="st0" d="M1128.03,559.03c1.79,2.74,4.07,5,4.75,7.69c0.49,1.95-0.45,5.25-1.93,6.57c-4.32,3.85-4.73,8.18-3.19,13.27
			c1.56,5.16,0.74,6.6-4.68,6.56c-4.86-0.03-9.73-0.69-14.57-1.31c-11.37-1.44-22.71-3.21-34.1-4.49
			c-16.51-1.86-33.06-3.35-49.58-5.18c-1.07-0.12-2.79-1.65-2.85-2.62c-0.49-7.25-0.67-14.53-0.87-21.8
			c-0.07-2.56,1.22-3.11,3.65-2.7c16.27,2.74,32.55,5.41,48.85,7.95c12.36,1.92,24.75,3.67,37.14,5.35
			c2.76,0.37,5.62,0.33,8.41,0.16c5.34-0.33,6.78-1.68,8.23-7.04C1127.46,560.75,1127.7,560.07,1128.03,559.03z"/>
		<path class="st0" d="M1025.99,487.87c19.44,1.22,38.6,2.43,57.91,3.65c-11.97,9.16-2.91,31.28,12.62,33.5
			c12.74,1.82,24.94,0.05,36.89-4.48c9.85-3.73,19.67-7.57,29.6-11.05c2.8-0.98,5.96-1.01,8.98-1.17c0.93-0.05,1.91,0.88,2.87,1.36
			c-0.63,0.9-1.07,2.29-1.92,2.64c-5.84,2.37-11.69,4.73-17.67,6.68c-6.1,1.99-12.42,3.28-18.52,5.29
			c-5.48,1.81-9.16,5.61-10.04,11.73c-0.06,0.44-0.41,0.83-0.75,1.49c-7.38-8.4-17.49-9.3-27.28-10.3
			c-22.71-2.31-45.46-4.08-68.2-6.07c-0.12-0.01-0.23-0.01-0.35-0.02c-6.38-0.57-6.4-0.57-6.09-7.17c0.33-6.93,0.68-13.86,1.1-20.79
			C1025.24,491.4,1025.69,489.68,1025.99,487.87z"/>
		<path class="st0" d="M961.63,551.32c0.52-2.57,0.84-4.12,1.13-5.58c-0.77-1.23-1.61-2.49-2.38-3.79
			c-1.85-3.14-4.65-4.61-8.12-4.79c-3.04-0.16-6.11,0.09-9.12-0.28c-4.11-0.51-5.48-2.55-4.68-6.69c0.61-3.15,1.42-6.28,2.38-9.34
			c0.24-0.77,1.37-1.64,2.2-1.77c3.34-0.52,6.75-1.19,10.1-1.03c17.18,0.81,34.35,1.84,51.53,2.82c4.19,0.24,8.38,0.57,13,0.88
			c0,3.19-0.04,6.03,0.01,8.87c0.11,6.1,0.19,12.21,0.47,18.31c0.13,2.72-0.54,3.49-3.38,3.14c-10.67-1.34-21.37-2.52-32.09-3.45
			C975.93,548.02,969.13,548.04,961.63,551.32z"/>
		<path class="st0" d="M983.48,550.1c10.28,1.17,20.96,2.44,31.66,3.56c2.43,0.26,3.66,1.19,3.48,3.79
			c-0.48,7.02-0.91,14.04-1.39,21.06c-0.13,1.84-0.94,2.81-2.97,2.5c-10.86-1.63-21.75-3.01-32.57-4.9
			c-4.33-0.75-8.55-2.39-12.7-3.95c-3.73-1.4-5.69-4.38-5.95-8.51c-0.1-1.66-0.56-3.3-0.71-4.96c-0.49-5.57,0.84-7.36,6.35-7.87
			C973.44,550.39,978.23,550.34,983.48,550.1z"/>
		<path class="st0" d="M1135.78,591.73c-3.05-3.74-4.44-13.68-2.16-17.43c0.76-1.26,2.5-2.21,3.98-2.65
			c7.17-2.11,14.32-4.38,21.62-5.86c8.12-1.64,16.39-2.5,24.6-3.66c1.15-0.16,2.38-0.32,3.49-0.08c2.18,0.47,5.83,0.79,6.13,1.93
			c0.77,2.86,0.81,6.51-0.33,9.19c-1.67,3.93-5.28,5.66-9.74,6.49c-13.65,2.54-27.21,5.64-40.76,8.76
			C1140.21,588.97,1138.03,590.61,1135.78,591.73z"/>
		<path class="st0" d="M1141.24,558.4c3.34-1.35,6.57-3.12,10.02-3.96c9.88-2.39,19.84-4.43,29.79-6.54
			c7.77-1.65,9.25-3.37,9.84-11.41c0.24-3.22,0.69-6.43,1.04-9.65c0.58,0.05,1.15,0.09,1.73,0.14c-0.18,3.56-0.34,7.13-0.57,10.69
			c-0.04,0.57-0.4,1.12-0.58,1.68c-1.98,6.29-1.85,6.49,4.54,7.66c-18.39,4.33-35.77,13.19-55.16,13.11
			C1141.67,559.55,1141.46,558.98,1141.24,558.4z"/>
		<path class="st0" d="M1136,567.28c1.05-4.51,2.64-6.12,6.58-5.82c11.3,0.87,21.85-3.06,32.51-6.11
			c7.52-2.15,15.04-4.32,22.59-6.35c1.35-0.36,2.87-0.05,4.31-0.05c0.15,0.51,0.29,1.01,0.44,1.52c-2.46,1.21-4.81,2.85-7.4,3.55
			c-10.14,2.77-20.36,5.22-30.55,7.82c-6.11,1.56-12.16,3.38-18.32,4.69C1143,567.23,1139.65,567.05,1136,567.28z"/>
		<path class="st0" d="M1175.99,513.62c2.84,6.6,9.58,1.03,14.81,4.23c-1.95,0.63-3.16,1.22-4.42,1.4
			c-8.67,1.23-17.41,2.07-26.02,3.62c-9.39,1.7-19.1,2.98-26.49,10.11c-2.12,2.04-3.63,4.73-5.46,7.18
			c-1.13-6.74,2.5-12.52,9.65-14.76c6.46-2.03,13.1-3.46,19.57-5.45C1163.63,518.1,1169.52,515.87,1175.99,513.62z"/>
		<path class="st0" d="M1023.35,585.16c29.98,3.49,59.96,6.98,91.07,10.61c-2.17,0.36-3.4,0.8-4.61,0.72
			c-9.56-0.63-19.14-1.18-28.68-2.09c-13.85-1.31-27.68-2.86-41.52-4.4c-4.53-0.5-9.04-1.17-13.53-1.96
			c-1.19-0.21-2.25-1.17-3.38-1.79C1022.92,585.89,1023.14,585.53,1023.35,585.16z"/>
		<path class="st0" d="M921.56,481.96c-1.19,4.77-2.93,8.9-3.14,13.1c-0.49,9.83,3.36,14.95,12.48,18.24
			c2.08,0.75,4.17,1.54,6.12,2.59c1.61,0.87,2.5,2.05,0.64,3.9c-2.07,2.06-3.82,4.44-5.83,6.83c0.3-1.61,0.56-3.17,0.88-4.73
			c1-4.85-0.69-7.42-5.56-8.46c-2.97-0.63-5.95-1.25-8.9-1.97c-3.4-0.82-5.17-3.03-5.18-6.67c-0.01-6.78,0.6-13.41,4.73-19.08
			C918.79,484.35,920.2,483.29,921.56,481.96z"/>
		<path class="st0" d="M1129.96,478.58c8.77-2.75,13.9-0.14,22.69-2.81c4.25-1.29,8.55-2.5,12.9-3.34c1.27-0.25,3.23,0.47,4.12,1.46
			c1.96,2.16,1.39,3.48-1.5,4.01c-8.39,1.52-13.18-2.48-21.59-1.02c-5.45,0.95-10.9,1.89-16.35,2.84
			C1130.14,479.34,1130.05,478.96,1129.96,478.58z"/>
		<path class="st0" d="M1021.99,483.79c1.24-6.6-0.84-7.07,3.39-11.45c1.99-2.06,3.97,0.27,6.74-0.65c1.06-0.35,3.12,0.94,3.98,2.07
			c0.47,0.63,0.75-0.86-0.01,0.12c-1.14,1.47-2.67,2.68-4.2,3.75c-4.42,3.08-4.71,1.13-6.78,6.39c-0.25,0.64-1.36,1.31-2.04,1.28
			C1022.59,485.26,1022.17,484.07,1021.99,483.79z"/>
		<path class="st0" d="M958.02,542.44c-7.26-0.9-14.54-1.64-21.74-2.87c-1.3-0.22-2.99-2.3-3.26-3.76
			c-1.02-5.55,1.6-11.7,5.62-13.72c-0.59,2.78-1.22,5.29-1.65,7.83c-0.89,5.28,1.36,8.29,6.58,8.72c3.37,0.28,6.78,0.1,10.12,0.56
			c1.66,0.23,3.19,1.46,4.78,2.24C958.32,541.78,958.17,542.11,958.02,542.44z"/>
		<path class="st0" d="M1174.55,583.56c-12.11,3.47-23.85,8.34-37.05,10.93C1140.08,589.87,1165.68,582.65,1174.55,583.56z"/>
		<path class="st0" d="M1019.47,511.1c0.44-6.38,0.85-13.52,1.49-20.63c0.1-1.08,1.29-2.05,1.98-3.07c0.25,1.13,0.76,2.27,0.72,3.38
			c-0.37,8.69-0.8,17.37-1.35,26.05c-0.07,1.06-0.94,2.06-1.43,3.09c-0.47-1.02-1.2-2.01-1.35-3.08
			C1019.3,515.22,1019.47,513.52,1019.47,511.1z"/>
		<path class="st0" d="M1180.24,559.94c6.21-1.75,12.44-3.5,18.86-5.31c-1.27,2.6-2.47,5.04-3.39,6.92
			C1190.66,561.02,1185.49,560.48,1180.24,559.94z"/>
		<path class="st0" d="M1016.03,585.02c-1.08,0.58-2.35,1.88-3.22,1.64c-6.14-1.65-12.2-3.61-18.09-6.25
			c6.98,1.07,13.95,2.15,20.93,3.22C1015.78,584.09,1015.9,584.55,1016.03,585.02z"/>
		<path class="st0" d="M1019.47,542.93c0-6.49-0.02-12.99,0.05-19.48c0.01-0.47,0.74-0.93,1.13-1.4c0.48,0.54,1.4,1.1,1.36,1.6
			c-0.4,6.45-0.93,12.89-1.42,19.33C1020.22,542.96,1019.84,542.94,1019.47,542.93z"/>
		<path class="st0" d="M1196.63,565.55c0.43,2.1,1.11,4.71,1.47,7.37c0.69,5.21-0.53,6.24-5.21,5.38
			C1194.15,574.01,1195.43,569.64,1196.63,565.55z"/>
		<path class="st0" d="M958.13,546.4c-5.7-0.97-11.39-1.93-17.09-2.9c0.09-0.57,0.18-1.13,0.26-1.7c5.71,0.9,11.42,1.8,17.12,2.7
			C958.33,545.14,958.23,545.77,958.13,546.4z"/>
		<path class="st0" d="M1136.63,560.92c-0.68,1.36-1.38,2.76-2.08,4.16c-0.37,0.07-0.74,0.15-1.12,0.22
			c-1.44-3.24-2.89-6.47-4.33-9.71c0.29-0.16,0.59-0.31,0.88-0.47C1132.13,557,1134.28,558.87,1136.63,560.92z"/>
		<path class="st0" d="M1179.2,472.8c-4.92,4.5-6.73,4.19-8.08-1.04C1173.89,470.86,1176.49,470.46,1179.2,472.8z"/>
	</g>
</g>
<path class="st1" d="M1021.49,509.06c-11.69,3.31-23.25,7.55-35.52,7.26c-6.27-0.15-12.74-0.71-18.68-2.48
	c-7.94-2.37-8.57-9.46-1.88-14.72c6.05-4.76,13.27-5.7,20.48-6.25"/>
<path class="st1" d="M1026.53,517.44c-1.44,13.12-5.64,25.36-13.38,36.29c-2.61,3.69-5.82,7.48-10.81,6.28
	c-4.95-1.19-7.12-5.54-8.17-10.27c-2.36-10.67,2.06-19.27,13.24-25.81c4.47-2.62,9.02-5.08,13.49-7.7"/>
<path class="st1" d="M1017.07,497.46c-12.66-3.83-25.68-4.17-38.72-1.89c-4.57,0.8-8.88,3.26-11.59,4.3
	c-6.17,5.9-4.53,11.06,2.3,13.04c7.32,2.12,14.95,2.79,22.41,1.43c10.44-1.89,20.73-4.75,31.03-7.38"/>
<path class="st1" d="M1024.14,516.22c-5.65,3.28-11.34,6.48-16.93,9.85c-10.66,6.43-14.24,15.31-10.52,25.75
	c2.88,8.08,8.06,9.05,13.8,2.46c5.9-6.77,9.22-14.86,11.64-23.3"/>
<path class="st2" d="M1022.52,506.96c-10.31,2.63-20.6,5.49-31.03,7.38c-7.46,1.35-15.09,0.68-22.41-1.43
	c-6.83-1.97-8.47-7.14-2.3-13.04c2.7-1.04,7.02-3.5,11.59-4.3c13.04-2.27,26.05-1.94,38.72,1.89"/>
<path class="st2" d="M1022.13,530.97c-2.42,8.44-5.74,16.53-11.64,23.3c-5.74,6.59-10.92,5.62-13.8-2.46
	c-3.72-10.44-0.14-19.31,10.52-25.75c5.59-3.37,11.28-6.57,16.93-9.85"/>
<path class="st2" d="M1039.45,514.87c10.91,1.98,18.86-0.5,23.16-7.12c3.32-5.12,0.63-8-7.24-7.6c-8.09,0.41-15.38,2.64-22.31,5.45
	c0,0-6.82,3.8-8.6,7.84C1022.68,517.48,1039.45,514.87,1039.45,514.87z"/>
<g>
	<g>
		<path class="st3" d="M668.09,479.79c-0.6,0-1.18-0.09-1.74-0.28c-1.16-0.69-1.74-1.69-1.74-2.98c0-1.53,0.49-3.22,1.46-5.07
			c3.29-6.29,7.95-12.72,13.99-19.27c6.04-6.55,15.4-13.8,28.08-21.76c3.47-8.1,6.55-16.57,9.23-25.41
			c0.97-2.41,1.46-4.19,1.46-5.35c0-1.07-0.42-1.6-1.25-1.6c-2.04,0-6.06,2.15-12.08,6.46c-12.87,9.67-26.82,17.66-41.86,23.95
			c-4.95,2.17-9.78,3.89-14.48,5.14c-4.7,1.25-9.64,1.87-14.82,1.87c-11.34,0-20.04-3.62-26.1-10.86
			c-6.06-7.24-9.09-16.4-9.09-27.46c0-8.52,1.76-18.03,5.28-28.53c4.81-14.49,10.9-27.47,18.26-38.95l7.15-11.73
			c-3.98,0.93-7.91,2.01-11.8,3.26c-8.7,3.19-18.03,5.04-27.98,5.55c-5.74,0-8.96-1.55-9.65-4.65c0-2.22,1.09-4.7,3.26-7.43
			c3.84-4.26,8.77-7.98,14.79-11.18c15.32-9.35,33.79-15.39,55.4-18.12c3.05-0.18,5-0.39,5.83-0.62c1.43-0.56,2.92-1.6,4.44-3.12
			c7.73-6.43,15.83-11.85,24.3-16.25c8.19-4.3,17.7-7.17,28.53-8.61c1.02-0.14,2.08-0.21,3.19-0.21c7.82,0,12.38,2.04,13.68,6.11
			c0.09,0.6,0.14,1.18,0.14,1.74c0,5.05-4,10-12.01,14.86c-4.3,2.87-10.53,6.55-18.68,11.04c5.92,2.55,11.89,6.32,17.91,11.32
			l0.42,0.49c1.99,1.48,2.98,2.94,2.98,4.37c0,0.32-0.05,0.65-0.14,0.97l-0.83,0.14c-1.11,0-2.38-0.88-3.82-2.64
			c-2.64-3.29-7.38-6.67-14.23-10.14c-3.15-1.71-5.32-2.57-6.53-2.57c-1.2,0.09-3.05,0.81-5.55,2.15
			c-14.44,6.76-31.1,13.19-49.99,19.3l-3.19,0.83c-1.99,0.42-3.66,1-5,1.74c-1.16,0.83-2.75,2.87-4.79,6.11
			c-0.46,0.74-0.93,1.44-1.39,2.08c-9.95,14.12-17.63,30.04-23.05,47.76c-2.27,7.04-3.56,15.18-3.89,24.44
			c0,11.52,2.89,20.48,8.68,26.87c5.37,5.97,13.4,8.96,24.09,8.96c9.72-0.28,19.37-2.68,28.95-7.22
			c15.13-6.66,28.9-14.81,41.31-24.44c5.46-3.93,9.63-5.9,12.5-5.9c2.82,0,4.23,1.46,4.23,4.37c0,2.45-2.31,9.86-6.94,22.22
			c-0.83,2.04-1.6,4.03-2.29,5.97c5.32-2.41,11.08-4.65,17.29-6.73c6.2-2.08,13.14-3.43,20.83-4.03c0.32,0,0.69-0.05,1.11-0.14
			c0.65-0.14,1.27-0.21,1.87-0.21c1.02,0,1.74,0.46,2.15,1.39c-0.23,0.97-0.71,1.54-1.42,1.7c-0.72,0.16-2.09,0.24-4.13,0.24
			c-10.78,1.2-20.64,3.79-29.57,7.78l-2.99,1.18c-2.96,0.93-5.32,2.15-7.08,3.68c-0.97,1.2-1.81,2.78-2.5,4.72
			c-8.42,14.02-15.01,23.4-19.75,28.12c-4.74,4.72-9.18,8.56-13.29,11.52C672.46,478.77,670.08,479.79,668.09,479.79z
			 M588.81,323.79c7.5-0.09,15.07-1.32,22.7-3.68c4.49-1.2,8.63-2.41,12.43-3.61c3.24-1.02,6.39-1.94,9.44-2.78
			c4.26-6.06,9.16-11.71,14.72-16.94c2.5-2.5,4.88-4.97,7.15-7.43c0.69-0.51,1.04-0.83,1.04-0.97c0-0.14-0.16-0.25-0.49-0.35
			c-22.22,2.41-42.05,9.23-59.5,20.48c-3.98,2.64-7.27,5.3-9.86,7.98c-1.76,1.8-2.64,3.4-2.64,4.79
			C583.81,322.77,585.47,323.61,588.81,323.79z M638.93,311.78c19.53-5.97,37.95-13.03,55.26-21.17
			c-7.78-2.31-16.87-3.47-27.28-3.47c-2.64,0-4.49,0.3-5.55,0.9c-5.79,4.21-12.7,11.45-20.76,21.73L638.93,311.78z M698.77,288.66
			c1.11-0.14,2.27-0.62,3.47-1.46c0.6-0.37,2.11-1.16,4.51-2.36c7.03-3.15,13.35-7.17,18.95-12.08c1.25-1.11,2.44-2.45,3.58-4.03
			c1.13-1.57,1.7-3.01,1.7-4.3c-0.19-2.36-1.83-3.77-4.93-4.23c-2.59-0.42-4.84-0.62-6.73-0.62c-1.11,0-2.22,0.05-3.33,0.14
			c-10.14,1.39-19.46,4.54-27.98,9.44c-9.35,4.77-16.73,9.86-22.15,15.27h2.85c9.16,0,17.33,0.88,24.51,2.64
			c0.83,0.23,1.64,0.49,2.43,0.76C696.71,288.39,697.75,288.66,698.77,288.66z M669.75,476.18c1.2,0,3.33-1.27,6.39-3.82
			c10.51-7.91,20.2-19.92,29.09-36.03c-0.05-0.23-0.25-0.35-0.62-0.35c-11.94,8.84-20.09,15.92-24.44,21.24
			c-7.73,9.4-11.59,15.23-11.59,17.5C668.57,475.69,668.97,476.18,669.75,476.18z"/>
		<path class="st3" d="M746.26,396.83c-3.19,0.09-6.04-0.6-8.54-2.08c-3.01-1.85-4.65-4.37-4.93-7.57c-0.28-3.7,0.67-6.8,2.85-9.3
			c2.92-3.29,6.71-5.09,11.39-5.42c2.27-0.18,4.37,0.02,6.32,0.62c2.5,0.74,3.89,1.87,4.17,3.4c0.14,1.99-1.08,3.49-3.64,4.51
			c-2.57,1.02-5,1.63-7.29,1.84c-2.29,0.21-3.95,0.36-4.96,0.45c-2.08,0.14-3.93,0.21-5.55,0.21c-0.37,1.25-0.51,2.41-0.42,3.47
			c0.14,1.67,0.86,3.1,2.15,4.3c2.36,2.18,4.97,3.15,7.84,2.92c6.66-0.46,13.42-4.23,20.27-11.32c0.46-0.42,0.88-0.9,1.25-1.46
			c1.39-1.76,2.64-2.66,3.75-2.71h0.69l0.07,0.49c0.09,1.44-0.93,3.03-3.05,4.79l-0.97,0.76c-4.12,4.07-8.31,7.27-12.57,9.58
			C752.62,395.67,749.68,396.5,746.26,396.83z M742.02,380.65c5.78-0.42,10.02-1.55,12.7-3.4c-1.53-1.57-3-2.34-4.41-2.29
			c-1.41,0.05-2.26,0.09-2.53,0.14c-2.22,0.14-4.3,0.69-6.25,1.67c-2.27,1.11-3.73,2.45-4.37,4.03
			C738.78,380.84,740.4,380.79,742.02,380.65z"/>
		<path class="st3" d="M818.04,456.53c-0.88,0-1.38-0.27-1.49-0.8c-0.12-0.53-0.17-1.03-0.17-1.49l0.07-0.97
			c0-4.4-0.21-35.94-0.62-94.62l-1.8,7.01c-1.11,4.58-2.45,9.05-4.03,13.4c-2.55,6.85-5.83,12.31-9.86,16.38
			c-1.76,1.43-3.43,2.15-5,2.15c-2.18-0.37-3.53-2.01-4.06-4.93c-0.53-2.92-0.8-6.22-0.8-9.93c0-6.29-0.62-10.3-1.87-12.01
			c-1.81,0.65-3.17,2.2-4.1,4.65l-0.56,1.18c-1.34,2.82-2.59,5.69-3.75,8.61c-1.25,3.19-2.18,5.42-2.78,6.66
			c-1.3,3.33-2.62,5.04-3.96,5.14c-1.53-0.09-2.52-1.55-2.99-4.37c-0.23-1.43-0.49-3.77-0.76-7.01l-0.07-2.43
			c0-2.31,0.39-3.47,1.18-3.47c0.83,0,1.34,0.46,1.53,1.39c0.14,0.6,0.21,1.3,0.21,2.08l-0.07,1.18c0,3.47,0.32,6.46,0.97,8.96
			c1.9-3.05,3.46-6.51,4.69-10.38c1.23-3.86,2.83-7.51,4.82-10.93c0.65-1.02,1.5-2,2.57-2.95c1.06-0.95,2.13-1.42,3.19-1.42h0.14
			c2.54,0.74,3.96,4.63,4.23,11.66c0.14,0.69,0.25,2.59,0.35,5.69v0.83c0,3.56,0.53,6.57,1.6,9.02c2.17-0.6,3.91-1.74,5.21-3.4
			c1.3-1.67,2.54-3.73,3.75-6.18c6.02-12.08,9.93-26.38,11.73-42.9c-13.89,1.44-26.96,3.7-39.22,6.8h-0.21
			c-0.37,0-0.61,0.34-0.73,1.01c-0.12,0.67-0.38,1.03-0.8,1.08c-0.42,0.05-0.83,0.12-1.25,0.21c-1.07,0.14-2.11,0.21-3.12,0.21
			c-1.06,0-1.81-0.32-2.22-0.97v-0.14c0-1.53,1.23-2.57,3.68-3.12l0.35-0.14c10.88-3.05,22.77-5.28,35.68-6.67l7.85-1.04
			c0.23-2.82,0.37-5.85,0.42-9.09l0.21-6.39c0.05-0.97,0.07-1.99,0.07-3.05c0.14-5.69,0.72-9.51,1.74-11.45
			c0.23-0.37,0.56-0.56,0.97-0.56c0.23,0,0.44,0.09,0.62,0.28c0.56,0.79,0.87,1.54,0.94,2.26c0.07,0.72,0.1,1.33,0.1,1.84
			l-0.14,2.99c-0.14,5.46-0.49,10.95-1.04,16.45l-0.49,5.76h1.25c4.07,0,8.55-0.23,13.43-0.69c4.88-0.46,9.85-0.69,14.89-0.69
			c2.68,0,5.37,0.07,8.05,0.21h1.32c0.56,0,1.1,0.08,1.63,0.24c0.53,0.16,0.8,0.68,0.8,1.56c-1.76,0.79-3.66,1.18-5.69,1.18
			c-0.69,0-1.42-0.03-2.19-0.1c-0.76-0.07-1.54-0.1-2.33-0.1c-10.46,0.05-20.85,0.56-31.17,1.53v103.44
			c0.18,2.96,0.28,5.02,0.28,6.18c0,0.32,0.02,0.67,0.07,1.04c0.05,0.37,0.07,0.76,0.07,1.18
			C819.36,454.93,818.92,455.93,818.04,456.53z"/>
		<path class="st3" d="M836.09,439.94c-0.88-0.28-1.4-0.89-1.56-1.84c-0.16-0.95-0.24-1.89-0.24-2.81v-2.15
			c-0.93-18.98-1.39-38.28-1.39-57.9c0-21.84,0.46-38,1.39-48.46c0.6-7.22,1.71-11.73,3.33-13.54c0.23-0.42,0.58-0.62,1.04-0.62
			c1.48,0,2.59,1.04,3.33,3.12c1.02,2.92,1.53,7.1,1.53,12.57l0.07,3.82c0,15-1.78,28.58-5.35,40.75c-0.28,0.88-0.6,1.81-0.97,2.78
			c-0.69,1.48-1.18,3.01-1.46,4.58c-0.19,1.76-0.28,3.56-0.28,5.42c0,1.81,0.09,3.68,0.28,5.62c0.37,4.03,0.6,11.43,0.69,22.22
			c0.09,12.31,0.32,19.6,0.69,21.87c0.18,0.65,0.28,1.27,0.28,1.87C837.48,438.48,837.02,439.38,836.09,439.94z M836.09,370.72
			c3.24-12.82,4.86-24.9,4.86-36.24c0-6.25-0.6-12.38-1.8-18.4l-0.07-0.14l-0.21,0.07c-1.62,7.96-2.53,15.45-2.74,22.46
			c-0.21,7.01-0.31,12.72-0.31,17.11C835.82,360.68,835.91,365.72,836.09,370.72z"/>
		<path class="st3" d="M862.06,396.83c-3.19,0.09-6.04-0.6-8.54-2.08c-3.01-1.85-4.65-4.37-4.93-7.57c-0.28-3.7,0.67-6.8,2.85-9.3
			c2.92-3.29,6.71-5.09,11.39-5.42c2.27-0.18,4.37,0.02,6.32,0.62c2.5,0.74,3.89,1.87,4.17,3.4c0.14,1.99-1.08,3.49-3.64,4.51
			c-2.57,1.02-5,1.63-7.29,1.84c-2.29,0.21-3.95,0.36-4.96,0.45c-2.08,0.14-3.93,0.21-5.55,0.21c-0.37,1.25-0.51,2.41-0.42,3.47
			c0.14,1.67,0.86,3.1,2.15,4.3c2.36,2.18,4.97,3.15,7.84,2.92c6.66-0.46,13.42-4.23,20.27-11.32c0.46-0.42,0.88-0.9,1.25-1.46
			c1.39-1.76,2.64-2.66,3.75-2.71h0.69l0.07,0.49c0.09,1.44-0.93,3.03-3.05,4.79l-0.97,0.76c-4.12,4.07-8.31,7.27-12.57,9.58
			C868.42,395.67,865.48,396.5,862.06,396.83z M857.82,380.65c5.78-0.42,10.02-1.55,12.7-3.4c-1.53-1.57-3-2.34-4.41-2.29
			c-1.41,0.05-2.26,0.09-2.53,0.14c-2.22,0.14-4.3,0.69-6.25,1.67c-2.27,1.11-3.73,2.45-4.37,4.03
			C854.58,380.84,856.2,380.79,857.82,380.65z"/>
	</g>
</g>
<g>
	<g>
		<path class="st3" d="M782.15,650.25c-13.24,0-25.9-2.78-37.98-8.33c-20.92-9.54-40.64-25.85-59.15-48.94
			c-5.46-6.57-11.14-12.9-17.04-18.99c-5.9-6.09-12.44-11.42-19.61-16c-9.21,1.94-19.62,3.31-31.24,4.1
			c0.05,21.15,0.09,32.51,0.14,34.09v0.21c0,1.2-0.44,1.87-1.32,2.01c-0.93,0-1.52-0.67-1.77-2.01c-0.25-1.34-0.43-12.66-0.52-33.95
			l-1.94-0.21c-6.99,0-13.82-0.72-20.48-2.15c-2.08-0.56-4.06-1.28-5.94-2.19c-1.87-0.9-2.95-2.21-3.23-3.92
			c0-3.89,3.93-6.67,11.8-8.33c3.98-0.88,8.08-1.32,12.29-1.32c2.27,0.09,4.79,0.14,7.57,0.14l0.49-91.43
			c-0.05-0.37-0.14-0.81-0.28-1.32c-0.14-0.51-0.21-1.04-0.21-1.6c0-0.97,0.51-1.6,1.53-1.87c0.93,0.14,1.48,0.65,1.67,1.53
			c0.18,0.6,0.28,12.22,0.28,34.85l-0.14,59.84c12.36,1.76,23,5.25,31.94,10.48c15.46-3.47,29.71-8.24,42.77-14.3
			c13.05-6.06,23.72-14.32,32-24.78c6.71-8.42,10.07-17.59,10.07-27.49c0-5-1.07-10.21-3.19-15.62
			c-5.79-12.22-15.67-21.37-29.64-27.46c-13.98-6.09-25.33-9.16-34.05-9.23c-8.72-0.07-13.25-0.1-13.57-0.1
			c-16.8,0-32.61,2.73-47.42,8.19c-13.61,4.86-25.27,12.1-34.99,21.73c-6.2,5.97-10.69,12.61-13.47,19.92
			c-2.78,7.31-4.17,13.91-4.17,19.79c0,8.19,1.6,15.48,4.79,21.87c0.69,1.3,1.04,2.38,1.04,3.26c0,0.6-0.16,1.2-0.49,1.81
			c-1.76-0.32-3.01-1.74-3.75-4.23l-0.35-0.83c-2.96-6.48-4.44-13.84-4.44-22.08c0.37-12.26,3.71-22.82,10.03-31.66
			c6.32-8.84,13.53-15.85,21.63-21.04c20.09-13.05,43.39-19.76,69.91-20.13c30.92,0,54.71,7.96,71.37,23.88
			c9.02,8.89,13.68,19.53,13.95,31.94c-0.6,18.65-10.55,34.16-29.85,46.51c-15.32,10.23-33.35,17.61-54.08,22.15
			c1.71,1.71,3.59,3.24,5.62,4.58c1.48,1.02,2.89,2.08,4.23,3.19c6.71,6.29,13.07,13.12,19.09,20.48l5.76,6.73
			c19.16,22.86,38.3,38.62,57.41,47.28c11.71,5.28,24.14,7.91,37.28,7.91c14.25,0,27.4-3.47,39.43-10.41
			c0.42-0.19,0.83-0.44,1.25-0.76c1.34-1.02,2.45-1.53,3.33-1.53c0.37,0,0.79,0.09,1.25,0.28c0,1.85-1.37,3.38-4.1,4.58
			C810.48,646.61,796.64,650.25,782.15,650.25z M614.08,559.16l-0.42-11.8h-4.86c-3.84,0-7.61,0.21-11.32,0.62
			c-5.42,0.6-9.54,2.48-12.36,5.62c2.78,2.5,6.43,4.03,10.97,4.58c4.54,0.56,9.26,0.83,14.16,0.83L614.08,559.16z M617.41,558.88
			c9.49-0.55,18.21-1.53,26.17-2.92c-1.34-1.39-3.03-2.41-5.07-3.05c-6.57-2.54-13.61-4.26-21.1-5.14V558.88z"/>
		<path class="st3" d="M721.96,567.7c-3.19,0.09-6.04-0.6-8.54-2.08c-3.01-1.85-4.65-4.37-4.93-7.57c-0.28-3.7,0.67-6.8,2.85-9.3
			c2.92-3.29,6.71-5.09,11.39-5.42c2.27-0.18,4.37,0.02,6.32,0.62c2.5,0.74,3.89,1.87,4.17,3.4c0.14,1.99-1.08,3.5-3.64,4.51
			c-2.57,1.02-5,1.63-7.29,1.84s-3.95,0.36-4.96,0.45c-2.08,0.14-3.93,0.21-5.55,0.21c-0.37,1.25-0.51,2.41-0.42,3.47
			c0.14,1.67,0.86,3.1,2.15,4.3c2.36,2.18,4.97,3.15,7.84,2.92c6.66-0.46,13.42-4.23,20.27-11.32c0.46-0.42,0.88-0.9,1.25-1.46
			c1.39-1.76,2.64-2.66,3.75-2.71h0.69l0.07,0.49c0.09,1.43-0.93,3.03-3.05,4.79l-0.97,0.76c-4.12,4.07-8.31,7.27-12.57,9.58
			C728.33,566.54,725.39,567.38,721.96,567.7z M717.73,551.52c5.78-0.42,10.02-1.55,12.7-3.4c-1.53-1.57-3-2.34-4.41-2.29
			c-1.41,0.05-2.26,0.09-2.53,0.14c-2.22,0.14-4.3,0.69-6.25,1.67c-2.27,1.11-3.73,2.45-4.37,4.03
			C714.49,551.71,716.11,551.66,717.73,551.52z"/>
		<path class="st3" d="M746.05,566.8c-0.65,0-1.27-0.12-1.87-0.35c-1.99-0.83-2.99-2.48-2.99-4.93c0-4.67,1.74-8.93,5.21-12.77
			c3.19-3.56,6.62-5.35,10.27-5.35c1.02,0,1.99,0.23,2.92,0.69c1.34,0.69,2.01,1.64,2.01,2.85l-0.07,0.83l-0.76,0.07
			c-0.6,0-1.39-0.24-2.36-0.73c-0.97-0.49-1.92-0.73-2.85-0.73c-0.65,0-1.39,0.14-2.22,0.42c-2.92,1.11-5.11,3.14-6.6,6.07
			c-1.48,2.94-2.22,5.43-2.22,7.46c0,1.2,0.21,2.36,0.62,3.47c2.41-0.65,4.34-1.76,5.8-3.33c1.46-1.57,2.74-3.29,3.85-5.14
			c1.29-2.08,2.78-3.96,4.44-5.62c0.88,0.42,1.34,0.96,1.39,1.63c0.05,0.67,0.07,1.1,0.07,1.28c0,0.93-0.08,1.89-0.24,2.88
			c-0.16,1-0.24,1.96-0.24,2.88l0.07,1.04c0.05,2.13,0.58,3.5,1.6,4.1c2.68-0.18,4.84-1.05,6.46-2.6c1.62-1.55,3.03-3.27,4.23-5.17
			c0.65-0.88,1.23-1.78,1.74-2.71c1.25-2.45,2.66-3.75,4.23-3.89c0.28,0.37,0.42,0.81,0.42,1.32c0,1.02-0.79,2.64-2.36,4.86
			c-1.25,1.99-2.98,4.19-5.21,6.59c-2.92,3.15-5.72,4.72-8.4,4.72c-3.52,0-5.42-2.92-5.69-8.75c-0.65,0.32-1.57,1.2-2.78,2.64
			C751.14,564.71,748.32,566.8,746.05,566.8z"/>
		<path class="st3" d="M783.47,572.35c-3.19,0.09-5.67-1-7.43-3.26c-1.57-2.08-2.41-4.42-2.5-7.01c-0.14-6.06,2.11-11.11,6.73-15.13
			c2.82-2.41,5.85-3.66,9.09-3.75c2.5-0.05,5.11,0.58,7.85,1.87h0.07c2.73,1.53,4.1,2.8,4.1,3.82c0.05,0.32-0.12,0.67-0.49,1.04
			c-0.37,0.37-0.69,0.55-0.97,0.55c-0.37,0-0.86-0.32-1.46-0.97c-0.32-0.32-0.79-0.69-1.39-1.11c-1.85-1.57-3.86-2.43-6.04-2.57
			h-0.42c-3.47,0.09-6.48,1.25-9.03,3.47c-3.7,3.33-5.48,7.31-5.35,11.94c0.09,5.14,2.15,7.96,6.18,8.47h0.49
			c3.33-0.09,6.32-1.46,8.96-4.1c7.91-7.87,12.89-18.63,14.93-32.28c1.39-9.3,1.94-19.44,1.67-30.41c-0.05-2.96-0.16-5.35-0.35-7.15
			c-0.19-1.48-0.3-2.92-0.35-4.3c-0.05-2.13,0.03-3.31,0.24-3.54c0.21-0.23,0.43-0.35,0.66-0.35c0.05,0,0.11,0,0.21,0
			c0.09,0,0.14,0.09,0.14,0.28c1.02,0.46,1.55,1.71,1.6,3.75l0.07,0.83c0.51,4.58,0.81,9.14,0.9,13.68
			c0.23,9.77-0.51,19.25-2.22,28.46c-2.45,13.47-6.97,23.84-13.54,31.1c-1.44,1.71-3.26,3.24-5.48,4.58
			C788.12,571.61,785.83,572.3,783.47,572.35z M804.09,625.74c-1.02-0.23-1.57-0.81-1.67-1.74c-0.09-0.93-0.16-1.74-0.21-2.43
			c0-0.65,0.02-1.3,0.07-1.94c0.05-0.65,0.05-1.25,0-1.8c0-13.33-0.16-26.78-0.49-40.34c-0.19-8.66-0.46-17.33-0.83-26.03
			c-0.42-11.71-0.79-23.72-1.11-36.03c-0.28-9.95-0.05-18.21,0.69-24.78c0.74-6.25,2.08-9.4,4.03-9.44l0.35,0.07
			c1.81,0.32,3.15,1.6,4.03,3.82c0.74,1.44,1.11,2.64,1.11,3.61c0.05,0.74-0.16,1.39-0.62,1.94c-0.79-0.23-1.35-0.66-1.7-1.28
			c-0.35-0.62-0.61-1.28-0.8-1.98c-0.19-0.69-0.41-1.31-0.66-1.84c-0.25-0.53-0.59-0.96-1.01-1.28c-1.71,3.43-2.5,7.17-2.36,11.25
			l-0.07,2.98c-0.46,9.72-0.58,19.74-0.35,30.06c0.14,6.57,0.44,13.26,0.9,20.06c0.79,11.62,1.32,23,1.6,34.16
			c0.28,11.15,0.3,22.1,0.07,32.84l0.21,7.64c0,0.46-0.05,0.94-0.14,1.42C805.04,625.15,804.69,625.51,804.09,625.74z"/>
		<path class="st3" d="M829.78,567.7c-3.19,0.09-6.04-0.6-8.54-2.08c-3.01-1.85-4.65-4.37-4.93-7.57c-0.28-3.7,0.67-6.8,2.85-9.3
			c2.92-3.29,6.71-5.09,11.39-5.42c2.27-0.18,4.37,0.02,6.32,0.62c2.5,0.74,3.89,1.87,4.17,3.4c0.14,1.99-1.08,3.5-3.64,4.51
			c-2.57,1.02-5,1.63-7.29,1.84s-3.95,0.36-4.96,0.45c-2.08,0.14-3.93,0.21-5.55,0.21c-0.37,1.25-0.51,2.41-0.42,3.47
			c0.14,1.67,0.86,3.1,2.15,4.3c2.36,2.18,4.97,3.15,7.84,2.92c6.66-0.46,13.42-4.23,20.27-11.32c0.46-0.42,0.88-0.9,1.25-1.46
			c1.39-1.76,2.64-2.66,3.75-2.71h0.69l0.07,0.49c0.09,1.43-0.93,3.03-3.05,4.79l-0.97,0.76c-4.12,4.07-8.31,7.27-12.57,9.58
			C836.14,566.54,833.2,567.38,829.78,567.7z M825.54,551.52c5.78-0.42,10.02-1.55,12.7-3.4c-1.53-1.57-3-2.34-4.41-2.29
			c-1.41,0.05-2.26,0.09-2.53,0.14c-2.22,0.14-4.3,0.69-6.25,1.67c-2.27,1.11-3.73,2.45-4.37,4.03
			C822.3,551.71,823.92,551.66,825.54,551.52z"/>
		<path class="st3" d="M871.29,567.77c-1.39,0-2.66-0.51-3.82-1.53c-0.65-1.02-0.97-2.27-0.97-3.75c0-1.34,0.23-2.99,0.69-4.93
			c0.28-2.36,0.42-4.4,0.42-6.11c0-1.9-0.28-3.38-0.83-4.44c-1.07,0-2.38,0.23-3.96,0.69c-2.27,0.69-3.96,1.04-5.07,1.04
			c-0.37,0-0.69-0.05-0.97-0.14c-0.51,0.42-1.3,1.87-2.36,4.37c-0.42,0.88-0.88,1.32-1.39,1.32c-0.23,0-0.49-0.04-0.76-0.14
			c-0.32-0.32-0.49-0.74-0.49-1.25c0-0.23,0.05-0.46,0.14-0.69c0.74-1.3,1.29-2.59,1.67-3.89c-0.42-0.37-0.8-0.71-1.15-1.01
			c-0.35-0.3-0.66-0.6-0.94-0.9s-0.47-0.71-0.59-1.22c-0.11-0.51-0.17-0.97-0.17-1.39c0-1.02,0.32-1.85,0.97-2.5
			c1.16-1.16,2.22-1.74,3.19-1.74c0.6,0,1.25,0.14,1.94,0.42c0.74,0.97,1.11,2.01,1.11,3.12l-0.28,2.71h0.35
			c1.16,0,3.15-0.44,5.97-1.32c1.16-0.32,2.27-0.49,3.33-0.49c0.46,0,0.93,0.23,1.39,0.69c0.46,0.46,0.83,1.15,1.11,2.05
			c0.28,0.9,0.42,2.35,0.42,4.34c0,1.67-0.09,3.68-0.28,6.04c-0.32,1.67-0.49,3.08-0.49,4.24c0,2.22,0.65,3.33,1.94,3.33
			c2.22,0,5.21-2.15,8.96-6.46c0.83-1.48,1.85-3.15,3.05-5c1.34-2.68,2.73-4.03,4.17-4.03h0.42c0.05,0.23,0.07,0.49,0.07,0.76
			c0,1.25-0.67,2.66-2.01,4.23c-0.37,0.46-1.3,1.94-2.78,4.44c-1.71,3.05-3.8,5.33-6.25,6.84
			C874.6,567.02,872.68,567.77,871.29,567.77z M854.84,545.55c0.28-1.67,0.42-2.75,0.42-3.26l-0.56,0.14
			c-0.74,0.23-1.11,0.76-1.11,1.6l0.07,0.83c0.23,0,0.4,0.12,0.52,0.35c0.11,0.23,0.27,0.35,0.45,0.35H854.84z"/>
		<path class="st3" d="M892.05,569.09c-0.97,0.04-1.97-0.23-2.99-0.83c-0.14-0.46-0.21-0.9-0.21-1.32
			c-0.05-1.71,0.97-3.31,3.05-4.79c0.46-0.42,0.9-0.81,1.32-1.18c-1.07-1.25-2.15-2.29-3.26-3.12c-2.68-1.99-4.07-4.28-4.17-6.87
			c-0.09-3.61,1.06-6.46,3.47-8.54c1.8-1.53,3.56-2.31,5.28-2.36c0.46,0,0.97,0.05,1.53,0.14c0.56,0.09,1.16,0.45,1.81,1.08
			c0.65,0.62,1.02,1.4,1.11,2.33c-0.09,2.04-1.09,3.69-2.99,4.96c-1.9,1.27-4.26,2.49-7.08,3.65c1.16,2.27,2.82,4.1,5,5.48l1.8,1.53
			c4.91-3.05,10.23-5.88,15.97-8.47c0.32-0.09,0.65-0.23,0.97-0.42c1.16-0.69,2.13-1.06,2.92-1.11c0.56,0,1.13,0.16,1.74,0.49
			c0,1.02-0.36,1.74-1.08,2.15c-0.72,0.42-1.52,0.74-2.4,0.97l-1.25,0.49c-5.42,2.36-10.53,5.16-15.34,8.4
			c0.09,0.51,0.14,1,0.14,1.46c0.09,1.99-0.67,3.56-2.29,4.72C894.13,568.69,893.12,569.09,892.05,569.09z M889,549.44l2.01-1.11
			c1.16-0.56,2.21-1.18,3.16-1.88c0.95-0.69,1.65-1.64,2.12-2.85c-0.83-0.42-1.62-0.6-2.36-0.55c-1.02,0.05-1.99,0.49-2.92,1.32
			c-1.44,1.34-2.13,2.92-2.08,4.72L889,549.44z M891.84,566.52c0.79-0.18,1.43-0.52,1.94-1.01c0.51-0.49,0.74-0.96,0.69-1.42
			c0-0.18-0.05-0.37-0.14-0.56c-0.28,0.51-0.61,0.89-1.01,1.15c-0.39,0.25-0.72,0.52-0.97,0.8
			C892.11,565.76,891.94,566.1,891.84,566.52z"/>
	</g>
</g>
<path class="st4" d="M977.82,246.28c-1.74,31.31,1.72,62.17,9.67,92.41c6.54,24.84,14.45,49.29,28.31,71.65
	c-12.13,8.39-20.05,20.2-24.74,33.9c-2.49,7.29-3.01,15.28-4.1,23c-0.16,1.15,1.41,2.54,2.18,3.82c0.98-1.06,2.04-2.06,2.91-3.21
	c0.32-0.42,0.13-1.19,0.29-1.76c2.83-9.79,4.95-19.86,8.7-29.28c4.69-11.8,14.44-19.48,25.24-25.51
	c12.4-6.93,25.69-10.31,39.43-4.78c19.64,7.91,32.89,21.94,37.56,43.07c1.47,6.67,2.34,13.48,3.47,20.17
	c6.15-0.02,7.06-1.04,6.23-6.5c-0.48-3.12-0.8-6.27-1.29-9.4c-1.97-12.59-5.97-24.25-15.66-33.19c-5.22-4.81-10.57-9.47-15.46-13.85
	c12.61-13.76,23.62-29.13,31.42-47.58c6.28,8.38,11.94,15.94,17.61,23.5c0.62-0.12,1.24-0.23,1.85-0.35
	c1.57-5.68,4.03-11.29,4.52-17.06c0.79-9.37,0.49-18.86,0.28-28.29c-0.28-12.62-2.99-24.73-8.23-36.27
	c-2.59-5.71-6.58-9.19-13.03-9.55c-3.45-0.19-6.97-1.12-10.32-0.66c-3.07,0.42-6.71,1.51-8.76,3.61
	c-8.03,8.24-12.28,18.69-15.95,29.46c-6.87,20.14-11.51,40.74-13.73,61.9c-0.53,5.03-1.28,10.04-1.97,15.4
	c-11.39-2.99-21.95-1.87-32.25,2.51c0-3.55-0.24-6.86,0.04-10.12c1.32-15.04,1.24-30.1-1.66-44.89
	c-2.43-12.36-5.56-24.65-9.33-36.67c-7.81-24.92-19.79-47.77-36.21-68.16"/>
<path class="st4" d="M1052.67,454.02c0-0.04-0.01-0.08-0.01-0.13c-1.49,0.14-3.04,0.06-4.45,0.48c-1.42,0.43-3.41,1.07-3.84,2.15
	c-0.47,1.17,0.15,3.24,0.99,4.41c4.94,6.84,6.61,6.8,11.72,0.13c0.64-0.83,1.34-1.63,1.9-2.51c1.71-2.73,0.64-4.26-2.27-4.68
	C1055.39,453.69,1054.02,453.96,1052.67,454.02z"/>
<path class="st4" d="M1067.84,435.74c-2.48,2.92-4.05,4.78-5.62,6.64c1.51,1.19,2.88,3.11,4.54,3.42c3.03,0.55,5.49-1.45,5.55-4.41
	C1072.34,439.9,1070.03,438.38,1067.84,435.74z"/>
<path class="st4" d="M1033.85,436.71c-2.01,2.47-4.06,3.86-4.25,5.47c-0.39,3.24,2.25,5.07,5.1,4.97c1.48-0.05,4.31-2.77,4.09-3.29
	C1037.86,441.59,1036.04,439.69,1033.85,436.71z"/>
<path class="st5" d="M984.84,243.59c16.42,20.39,28.4,43.24,36.21,68.16c3.77,12.02,6.9,24.31,9.33,36.67
	c2.91,14.79,2.98,29.85,1.66,44.89c-0.29,3.26-0.04,6.57-0.04,10.12c10.31-4.37,20.86-5.49,32.25-2.51
	c0.69-5.36,1.45-10.37,1.97-15.4c2.22-21.16,6.86-41.75,13.73-61.9c3.67-10.77,7.92-21.21,15.95-29.46c2.05-2.1,5.69-3.19,8.76-3.61
	c3.34-0.46,6.86,0.47,10.32,0.66c6.44,0.36,10.43,3.84,13.03,9.55c5.24,11.54,7.96,23.66,8.23,36.27
	c0.21,9.43,0.51,18.92-0.28,28.29c-0.49,5.77-2.94,11.38-4.52,17.06c-0.62,0.12-1.24,0.23-1.85,0.35
	c-5.66-7.56-11.33-15.12-17.61-23.5c-7.81,18.45-18.81,33.82-31.42,47.58c4.89,4.37,10.24,9.03,15.46,13.85
	c9.68,8.93,13.69,20.6,15.66,33.19c0.49,3.12,0.81,6.27,1.29,9.4c0.83,5.46-0.08,6.49-6.23,6.5c-1.13-6.69-1.99-13.5-3.47-20.17
	c-4.67-21.13-17.92-35.16-37.56-43.07c-13.73-5.53-27.02-2.16-39.43,4.78c-10.8,6.04-20.55,13.71-25.24,25.51
	c-3.74,9.43-5.87,19.49-8.7,29.28c-0.17,0.57,0.03,1.34-0.29,1.76c-0.87,1.14-1.93,2.15-2.91,3.21c-0.77-1.28-2.34-2.67-2.18-3.82
	c1.09-7.72,1.61-15.71,4.1-23c4.69-13.7,12.61-25.51,24.74-33.9c-13.86-22.36-21.77-46.81-28.31-71.65
	c-7.96-30.24-11.41-61.1-9.67-92.41"/>
<path d="M982.64,253.01c0.81,15.46,1.01,30.98,2.59,46.37c3.76,36.79,14.84,71.39,33.12,103.58c0.85,1.5,2.98,3.06,4.56,3.1
	c1.1,0.03,2.9-2.32,3.31-3.88c3.64-14.04,3.95-28.22,1.52-42.52c-3.82-22.51-10.93-43.99-19.62-65.03
	c-6.45-15.62-13.77-30.69-25.07-44.94"/>
<path d="M1093.13,306.14c-1.26,2.39-2.25,3.86-2.86,5.47c-3.61,9.55-7.44,19.03-10.63,28.73c-6.16,18.75-9.98,37.99-10.37,57.79
	c-0.03,1.43,0.95,3.28,2.06,4.26c3.81,3.39,6.62,0.43,9.08-2.1c12.06-12.44,21.04-26.83,27.26-43.04c1.29-3.37,0.76-5.87-0.46-8.84
	c-2.85-6.93-5.74-13.86-8.12-20.96C1096.86,320.81,1095.28,313.96,1093.13,306.14z"/>
<path d="M1129.16,373.92c0.44-0.1,0.87-0.19,1.31-0.29c1.08-4.93,2.78-9.81,3.12-14.79c1.11-16.16-1.07-31.87-6.38-47.32
	c-3.97-11.55-11.28-15.48-21.27-15.93c-3.49-0.16-5.25,1.41-5.68,4.31c-0.5,3.39-0.83,6.96-0.3,10.3
	c3.17,20.37,11.33,38.79,22.75,55.82C1124.59,368.84,1127,371.29,1129.16,373.92z"/>
<path d="M1052.67,454.02c1.35-0.06,2.72-0.33,4.04-0.15c2.91,0.41,3.98,1.95,2.27,4.68c-0.56,0.88-1.26,1.68-1.9,2.51
	c-5.1,6.67-6.78,6.71-11.72-0.13c-0.85-1.17-1.47-3.24-0.99-4.41c0.44-1.08,2.42-1.72,3.84-2.15c1.4-0.42,2.96-0.34,4.45-0.48
	C1052.66,453.93,1052.67,453.98,1052.67,454.02z"/>
<path d="M1067.84,435.74c2.19,2.63,4.5,4.16,4.48,5.64c-0.06,2.97-2.52,4.97-5.55,4.41c-1.67-0.31-3.04-2.23-4.54-3.42
	C1063.79,440.52,1065.36,438.67,1067.84,435.74z"/>
<path d="M1033.85,436.71c2.19,2.98,4.01,4.88,4.94,7.15c0.21,0.52-2.61,3.24-4.09,3.29c-2.85,0.1-5.49-1.73-5.1-4.97
	C1029.79,440.57,1031.84,439.18,1033.85,436.71z"/>
<path class="st6" d="M983.03,249.7c11.3,14.25,18.62,29.32,25.07,44.94c8.69,21.04,15.8,42.52,19.62,65.03
	c2.43,14.31,2.11,28.48-1.52,42.52c-0.41,1.56-2.21,3.91-3.31,3.88c-1.58-0.05-3.71-1.6-4.56-3.1
	c-18.28-32.2-29.36-66.8-33.12-103.58c-1.57-15.38-1.78-30.91-2.59-46.37"/>
<path class="st7" d="M1093.13,306.14c2.15,7.82,3.73,14.67,5.96,21.31c2.38,7.1,5.27,14.03,8.12,20.96
	c1.22,2.97,1.75,5.47,0.46,8.84c-6.22,16.21-15.19,30.6-27.26,43.04c-2.46,2.53-5.27,5.49-9.08,2.1c-1.11-0.98-2.09-2.83-2.06-4.26
	c0.4-19.8,4.21-39.04,10.37-57.79c3.19-9.69,7.02-19.18,10.63-28.73C1090.88,310,1091.87,308.53,1093.13,306.14z"/>
<path class="st7" d="M1129.16,373.92c-2.17-2.62-4.57-5.08-6.46-7.89c-11.42-17.03-19.58-35.45-22.75-55.82
	c-0.52-3.35-0.19-6.92,0.3-10.3c0.43-2.9,2.18-4.47,5.68-4.31c10,0.45,17.31,4.38,21.27,15.93c5.31,15.44,7.49,31.16,6.38,47.32
	c-0.34,4.98-2.04,9.86-3.12,14.79C1130.03,373.72,1129.6,373.82,1129.16,373.92z"/>
</svg>
