<svg id="Layer_1" data-name="Layer 1" xmlns="http://www.w3.org/2000/svg" viewBox="0 0 656.59 566.96">
  <defs>
    <style>
      .cls-1{fill:none;}.cls-1,.cls-3,.cls-4,.cls-6,.cls-8{stroke:#5e2217;}.cls-1,.cls-2,.cls-3,.cls-6,.cls-8{stroke-miterlimit:10;}.cls-1,.cls-3{stroke-width:3px;}.cls-2,.cls-3,.cls-4,.cls-7,.cls-8{fill:#fcf8d5;}.cls-2{stroke:#000;}.cls-4{font-size:142.18px;stroke-linejoin:round;stroke-width:4px;font-family:'Dalton White', Arial, Helvetica, sans-serif;}.cls-5{fill:#fff;}
    </style>
  </defs>
  
  <!-- Decorative paths -->
  <path class="cls-1" d="M1026.62,485.66a42.59,42.59,0,0,0,5.17.93c11.68.77,23.44.79,35,2.31,18.42,2.43,35.4-3.13,52.51-8.34,10.51-3.21,17.26-1.52,27.74-4.87,5.77-1.84,10.6.24,16.43-1.42a4.84,4.84,0,0,0-3.09-1.84c-7-.48-14-1.29-21-1.13-19.66.45-39.3,1.54-59,1.94-10.44.21-20.76-1.12-30.59-5.26-1.81-.76-4.11-.32-6.18-.44l-.34,1.07c.52.71,1,1.42,1.55,2.12,5.55,7.36,15.8,5.67,21.27,13.09.77,1.06,1,2.57,1.42,3.86l-1.05.6a16.13,16.13,0,0,1-2.39-2.27c-4.37-6.18-12.26-7-16.61-13.21-3-4.28-7.79-4.58-13-5.13-9.27-1-18.74-2.16-27.92-1.21-8.58.88-16.86,4.6-25.35,6.76-15.3,3.88-26-1.5-41.33,2.26-2,.49-4,1.13-6.61,1.88l85.93,7.52c2.08-5.44.06-5.42,2.54-10.35s5.18-5,11.11-4.39c1.61.15,3.93,1.29,4.43,2.57.59,1.55,1.11.46.17,2-1.06,1.72.54-2.58-1.12-1.27C1032.39,476.59,1028.05,479.52,1026.62,485.66Z" transform="translate(-547.79 -120.14)"/>
  
  <!-- Main text elements -->
  <text class="cls-4" x="33.17" y="275.37" font-family="'Dalton White', Arial, Helvetica, sans-serif" font-size="142.18px" fill="#fcf8d5" stroke="#5e2217" stroke-width="4px" text-anchor="start" dominant-baseline="alphabetic">Gentle</text>
  <text class="cls-4" x="2" y="446.24" font-family="'Dalton White', Arial, Helvetica, sans-serif" font-size="142.18px" fill="#fcf8d5" stroke="#5e2217" stroke-width="4px" text-anchor="start" dominant-baseline="alphabetic">Readers</text>
  
  <!-- Additional decorative elements -->
  <path class="cls-5" d="M977.82,246.28a297,297,0,0,0,9.67,92.41c6.54,24.84,14.45,49.29,28.31,71.65-12.13,8.39-20,20.2-24.73,33.9-2.5,7.29-3,15.28-4.11,23-.16,1.14,1.41,2.54,2.18,3.81,1-1.06,2-2.06,2.91-3.2.32-.42.13-1.19.29-1.76,2.83-9.79,5-19.86,8.7-29.29,4.69-11.8,14.44-19.47,25.24-25.51,12.4-6.93,25.69-10.31,39.43-4.78,19.63,7.91,32.89,21.94,37.55,43.07,1.48,6.67,2.34,13.48,3.47,20.17,6.15,0,7.06-1,6.23-6.5-.48-3.12-.8-6.27-1.29-9.39-2-12.6-6-24.26-15.65-33.19-5.22-4.81-10.57-9.48-15.46-13.85,12.61-13.76,23.62-29.12,31.42-47.58l17.61,23.5,1.85-.34c1.58-5.68,4-11.29,4.52-17.06.79-9.37.49-18.86.28-28.29a91.7,91.7,0,0,0-8.23-36.28c-2.59-5.71-6.58-9.19-13-9.55-3.45-.19-7-1.12-10.31-.66-3.07.42-6.72,1.51-8.76,3.61-8,8.25-12.28,18.69-16,29.46a282.38,282.38,0,0,0-13.73,61.9c-.53,5-1.28,10-2,15.4a48.41,48.41,0,0,0-32.26,2.5c0-3.55-.24-6.86,0-10.12,1.31-15,1.24-30.1-1.67-44.89a345.47,345.47,0,0,0-9.33-36.67,205.92,205.92,0,0,0-36.21-68.16" transform="translate(-547.79 -120.14)"/>
  
  <!-- Additional decorative paths for visual appeal -->
  <path class="cls-2" d="M1021.49,509.06c-11.68,3.31-23.25,7.55-35.51,7.26a71.22,71.22,0,0,1-18.68-2.48c-7.94-2.37-8.56-9.45-1.88-14.71,6.05-4.77,13.26-5.7,20.48-6.25" transform="translate(-547.79 -120.14)"/>
  <path class="cls-3" d="M1022.52,507c-10.31,2.63-20.6,5.49-31,7.38a49.07,49.07,0,0,1-22.41-1.44c-6.83-2-8.46-7.13-2.3-13,2.7-1,7-3.5,11.59-4.3,13-2.27,26-1.94,38.71,1.89" transform="translate(-547.79 -120.14)"/>
</svg>