<svg id="Layer_1" data-name="Layer 1" xmlns="http://www.w3.org/2000/svg" viewBox="0 0 656.59 566.96"><defs><style>.cls-1{fill:none;}.cls-1,.cls-3,.cls-4,.cls-6,.cls-8{stroke:#5e2217;}.cls-1,.cls-2,.cls-3,.cls-6,.cls-8{stroke-miterlimit:10;}.cls-1,.cls-3{stroke-width:3px;}.cls-2,.cls-3,.cls-4,.cls-7,.cls-8{fill:#fcf8d5;}.cls-2{stroke:#000;}.cls-4{font-size:142.18px;stroke-linejoin:round;stroke-width:4px;font-family:DaltonWhite, Dalton White;}.cls-5{fill:#fff;}</style></defs><path class="cls-1" d="M1026.62,485.66a42.59,42.59,0,0,0,5.17.93c11.68.77,23.44.79,35,2.31,18.42,2.43,35.4-3.13,52.51-8.34,10.51-3.21,17.26-1.52,27.74-4.87,5.77-1.84,10.6.24,16.43-1.42a4.84,4.84,0,0,0-3.09-1.84c-7-.48-14-1.29-21-1.13-19.66.45-39.3,1.54-59,1.94-10.44.21-20.76-1.12-30.59-5.26-1.81-.76-4.11-.32-6.18-.44l-.34,1.07c.52.71,1,1.42,1.55,2.12,5.55,7.36,15.8,5.67,21.27,13.09.77,1.06,1,2.57,1.42,3.86l-1.05.6a16.13,16.13,0,0,1-2.39-2.27c-4.37-6.18-12.26-7-16.61-13.21-3-4.28-7.79-4.58-13-5.13-9.27-1-18.74-2.16-27.92-1.21-8.58.88-16.86,4.6-25.35,6.76-15.3,3.88-26-1.5-41.33,2.26-2,.49-4,1.13-6.61,1.88l85.93,7.52c2.08-5.44.06-5.42,2.54-10.35s5.18-5,11.11-4.39c1.61.15,3.93,1.29,4.43,2.57.59,1.55,1.11.46.17,2-1.06,1.72.54-2.58-1.12-1.27C1032.39,476.59,1028.05,479.52,1026.62,485.66Zm99.94,67c-.32-3.14-.65-6.22-1-9.31-.51-5.37-3.59-8.66-8.34-10.42a40.09,40.09,0,0,0-7.74-2.27c-7.38-1.16-14.78-2.3-22.22-3-20.26-1.93-40.53-3.61-60.8-5.44-2.12-.2-3,.54-3.09,2.7q-.74,12.72-1.66,25.42c-.15,2.1.58,2.9,2.67,3.22,25.54,4,51,8.09,76.59,12a134,134,0,0,0,17.1,1.41c5,.12,6.46-1.26,7.49-6.15A82,82,0,0,0,1126.56,552.69Zm-107-65.5c-1.4-.24-2.4-.47-3.43-.57-17.91-1.79-35.82-3.7-53.75-5.28-9.32-.82-18.68-1.31-28-1.45a14.77,14.77,0,0,0-8.75,2.49c-8.32,6.4-8.7,24.78,4.61,28.86,3.73,1.14,7.74,2,10.31,5.65.32.45,1.41.48,2.13.46,6.53-.27,13.08-1.09,19.58-.8,17.29.76,34.57,1.93,51.85,3.11,2.83.19,3.65-.6,3.67-3.45,0-5.26.45-10.51.78-15.76C1018.79,496.08,1019.18,491.72,1019.53,487.19Zm156-13.5c-11,1.88-20.91,3.55-30.8,5.27-13.57,2.36-27.31,3.84-40.4,8.68-4,1.48-8.43,1.75-12.6,2.82-7.63,2-13,6.28-11.5,15,1.8,10.57,7.8,16.63,19,18.4,13.32,2.11,25.66-2,38-6.37,12-4.27,23.25-11.43,36.66-10.85C1174.41,495.51,1175,484.67,1175.51,473.69ZM1128,559c-.33,1-.57,1.72-.75,2.41-1.44,5.35-2.89,6.7-8.23,7a42.18,42.18,0,0,1-8.41-.16c-12.39-1.68-24.78-3.42-37.14-5.34q-24.45-3.79-48.85-8c-2.43-.41-3.72.14-3.65,2.7.19,7.27.38,14.55.87,21.8.06,1,1.78,2.5,2.85,2.62,16.52,1.82,33.07,3.32,49.58,5.18,11.39,1.28,22.73,3,34.1,4.48a121.11,121.11,0,0,0,14.58,1.31c5.42,0,6.23-1.4,4.68-6.56s-1.13-9.42,3.19-13.26a7.91,7.91,0,0,0,1.93-6.57C1132.1,564,1129.82,561.77,1128,559Zm-102-71.16c-.3,1.81-.75,3.53-.86,5.28-.42,6.93-.77,13.86-1.1,20.79-.32,6.6-.3,6.6,6.09,7.17l.35,0c22.73,2,45.49,3.77,68.2,6.07,9.79,1,19.9,1.9,27.28,10.3a5.87,5.87,0,0,0,.75-1.49c.88-6.12,4.57-9.92,10-11.73,6.1-2,12.42-3.3,18.52-5.28s11.84-4.32,17.67-6.68c.85-.35,1.29-1.74,1.92-2.64-1-.48-1.94-1.41-2.87-1.36-3,.16-6.17.19-9,1.17-9.93,3.48-19.75,7.32-29.6,11-12,4.53-24.15,6.3-36.89,4.48-15.53-2.22-24.59-24.34-12.62-33.5Zm-64.36,63.45c7.5-3.28,14.3-3.3,21.06-2.71,10.71.93,21.41,2.12,32.09,3.45,2.83.36,3.5-.42,3.37-3.13-.28-6.1-.35-12.21-.47-18.31,0-2.84,0-5.68,0-8.87-4.62-.31-8.8-.64-13-.88-17.18-1-34.35-2-51.53-2.82a50.91,50.91,0,0,0-10.1,1,3.27,3.27,0,0,0-2.2,1.77,85.76,85.76,0,0,0-2.38,9.34c-.8,4.14.56,6.17,4.68,6.69,3,.37,6.08.12,9.12.28a9.42,9.42,0,0,1,8.12,4.79c.77,1.3,1.6,2.56,2.38,3.79C962.47,547.21,962.16,548.75,961.63,551.32Zm21.85-1.22c-5.25.24-10,.29-14.8.73-5.52.51-6.84,2.3-6.36,7.87.15,1.66.61,3.3.71,5,.26,4.14,2.22,7.11,6,8.52a72.29,72.29,0,0,0,12.7,4c10.82,1.88,21.72,3.26,32.57,4.89,2,.31,2.84-.66,3-2.5.48-7,.91-14,1.39-21.07.18-2.59-1-3.53-3.48-3.78C1004.44,552.54,993.76,551.27,983.48,550.1Zm152.3,41.63c2.25-1.12,4.43-2.76,6.84-3.31,13.55-3.11,27.11-6.22,40.76-8.76,4.47-.83,8.07-2.56,9.74-6.49a15,15,0,0,0,.33-9.18c-.31-1.15-4-1.47-6.13-1.94a10.31,10.31,0,0,0-3.5.08c-8.21,1.16-16.48,2-24.6,3.67-7.3,1.47-14.45,3.75-21.62,5.86a7.25,7.25,0,0,0-4,2.64C1131.34,578.05,1132.73,588,1135.78,591.73Zm5.46-33.33.65,1.73c19.39.07,36.76-8.78,55.16-13.12-6.39-1.16-6.52-1.37-4.54-7.65a8.06,8.06,0,0,0,.58-1.69c.23-3.56.39-7.12.57-10.69l-1.73-.14c-.35,3.22-.8,6.43-1,9.65-.59,8-2.07,9.76-9.84,11.41-9.94,2.12-19.91,4.16-29.79,6.54C1147.81,555.28,1144.57,557.05,1141.24,558.4Zm-5.24,8.88c3.65-.23,7,0,10.17-.73,6.16-1.31,12.22-3.13,18.32-4.69,10.19-2.61,20.41-5.06,30.55-7.83,2.59-.7,4.94-2.34,7.4-3.55L1202,549a17.22,17.22,0,0,0-4.31,0c-7.55,2-15.07,4.19-22.59,6.34-10.66,3.06-21.21,7-32.52,6.11C1138.65,561.16,1137.05,562.77,1136,567.28Zm40-53.66c-6.47,2.25-12.36,4.48-18.36,6.33-6.47,2-13.11,3.42-19.57,5.44-7.15,2.25-10.78,8-9.65,14.77,1.83-2.45,3.34-5.14,5.46-7.18,7.39-7.13,17.1-8.41,26.49-10.11,8.61-1.55,17.35-2.39,26-3.62a32,32,0,0,0,4.42-1.4C1185.57,514.65,1178.83,520.22,1176,513.62Zm-152.64,71.54-.64,1.1c1.12.62,2.19,1.58,3.38,1.79,4.48.79,9,1.46,13.53,2,13.83,1.53,27.66,3.08,41.51,4.39,9.54.91,19.12,1.47,28.68,2.09,1.2.08,2.44-.36,4.61-.72ZM921.56,482a34.27,34.27,0,0,0-3.77,3.75c-4.12,5.67-4.74,12.3-4.72,19.08,0,3.64,1.77,5.84,5.17,6.67,3,.71,5.93,1.34,8.91,2,4.87,1,6.56,3.6,5.56,8.45-.32,1.56-.58,3.13-.88,4.73,2-2.38,3.76-4.77,5.83-6.82,1.86-1.85,1-3-.64-3.9a44.56,44.56,0,0,0-6.12-2.59c-9.11-3.29-13-8.41-12.48-18.24C918.63,490.86,920.37,486.73,921.56,482Zm208.4-3.38.27,1.14,16.36-2.84c8.4-1.46,13.19,2.54,21.58,1,2.89-.52,3.46-1.84,1.51-4a5.19,5.19,0,0,0-4.13-1.46,131.08,131.08,0,0,0-12.89,3.33C1143.86,478.44,1138.73,475.83,1130,478.58Zm-108,5.21c.18.28.6,1.47,1.08,1.49a2.56,2.56,0,0,0,2-1.27c2.07-5.26,2.36-3.31,6.77-6.39a18.6,18.6,0,0,0,4.2-3.75c.77-1,.49.51,0-.12-.86-1.13-2.92-2.42-4-2.07-2.78.93-4.75-1.41-6.74.65C1021.15,476.72,1023.23,477.18,1022,483.79Zm-64,58.65.46-1c-1.59-.78-3.12-2-4.79-2.24-3.33-.47-6.75-.29-10.11-.57-5.23-.43-7.48-3.43-6.59-8.72.43-2.54,1.06-5,1.65-7.83-4,2-6.64,8.17-5.62,13.72.26,1.46,2,3.54,3.26,3.76C943.48,540.8,950.76,541.53,958,542.44Zm216.53,41.12c-8.87-.91-34.47,6.31-37,10.94C1150.7,591.91,1162.44,587,1174.55,583.56ZM1019.47,511.1a45.82,45.82,0,0,0,.06,5.75,12.45,12.45,0,0,0,1.35,3.08c.5-1,1.37-2,1.44-3.09.55-8.68,1-17.36,1.35-26.05a14.19,14.19,0,0,0-.72-3.38c-.69,1-1.88,2-2,3.07C1020.32,497.59,1019.91,504.72,1019.47,511.1Zm160.77,48.84,15.47,1.61,3.39-6.92ZM1016,585l-.38-1.39-20.93-3.22a120.21,120.21,0,0,0,18.09,6.25C1013.68,586.89,1015,585.6,1016,585Zm3.44-42.09,1.12.05c.5-6.45,1-12.88,1.42-19.33,0-.5-.88-1.07-1.36-1.6-.39.46-1.13.92-1.13,1.39C1019.44,529.94,1019.47,536.43,1019.47,542.93Zm177.16,22.62-3.74,12.75c4.68.86,5.9-.17,5.21-5.38C1197.75,570.26,1197.06,567.65,1196.63,565.55ZM958.13,546.4l.29-1.9-17.12-2.69L941,543.5Zm178.5,14.52-6.64-5.79-.88.47q2.16,4.85,4.33,9.71l1.12-.22C1135.26,563.68,1136,562.28,1136.63,560.92Zm42.57-88.12c-2.71-2.34-5.31-1.94-8.08-1C1172.47,477,1174.29,477.3,1179.2,472.8Z" transform="translate(-547.79 -120.14)"/><path class="cls-1" d="M1026.62,485.66c1.43-6.14,5.77-9.07,9.81-12.26,1.66-1.31.06,3,1.12,1.27.94-1.5.42-.41-.17-2-.5-1.28-2.82-2.42-4.43-2.57-5.93-.57-8.69-.42-11.11,4.39s-.46,4.91-2.54,10.35l-85.93-7.52c2.63-.75,4.6-1.39,6.61-1.88,15.33-3.76,26,1.62,41.33-2.26,8.49-2.16,16.77-5.88,25.35-6.76,9.18-.95,18.65.24,27.92,1.21,5.21.55,10,.85,13,5.13,4.35,6.19,12.24,7,16.61,13.21a16.13,16.13,0,0,0,2.39,2.27l1.05-.6c-.46-1.29-21.9.63-22.68-.42-5.46-7.42,5.54-9.17,0-16.53-.53-.7-1-1.41-1.55-2.12l.34-1.07c2.07.12,4.37-.32,6.18.44,9.83,4.14,20.15,5.47,30.59,5.26,19.62-4.3,39.27-4.32,59-1.94,7-.16,14,.65,21,1.13a4.84,4.84,0,0,1,3.09,1.84c-5.83,1.66-10.66-.42-16.43,1.42-10.48,3.35-17.23,1.66-27.74,4.87-17.21,5.5-34.19,11.06-52.51,8.34-11.58-1.52-23.34-1.54-35-2.31A42.59,42.59,0,0,1,1026.62,485.66Z" transform="translate(-547.79 -120.14)"/><path class="cls-1" d="M1126.56,552.69a82,82,0,0,1-1,8.15c-1,4.89-2.49,6.27-7.49,6.15a134,134,0,0,1-17.1-1.41c-25.55-3.9-51-8-76.59-12-2.09-.32-2.82-1.12-2.67-3.22q.91-12.71,1.66-25.42c.13-2.16,1-2.9,3.09-2.7,20.27,1.83,40.54,3.51,60.8,5.44,7.44.7,14.84,1.84,22.22,3a40.09,40.09,0,0,1,7.74,2.27c4.75,1.76,7.83,5,8.34,10.42C1125.91,546.47,1126.24,549.55,1126.56,552.69Z" transform="translate(-547.79 -120.14)"/><path class="cls-1" d="M1019.53,487.19c-.35,4.53-.74,8.89-1,13.26-.33,5.25-.74,10.5-.78,15.76,0,2.85-.84,3.64-3.67,3.45-17.28-1.18-34.56-2.35-51.85-3.11-6.5-.29-13.05.53-19.58.8-.72,0-1.81,0-2.13-.46-2.57-3.6-6.58-4.51-10.31-5.65-13.31-4.08-12.93-22.46-4.61-28.86a14.77,14.77,0,0,1,8.75-2.49c9.34.14,18.7.63,28,1.45,17.93,1.58,35.84,3.49,53.75,5.28C1017.13,486.72,1018.13,487,1019.53,487.19Z" transform="translate(-547.79 -120.14)"/><path class="cls-1" d="M1175.51,473.69c-.55,11-1.1,21.82-1.67,32.93-13.41-.58-24.62,6.58-36.66,10.85-12.3,4.38-24.64,8.48-38,6.37-11.21-1.77-17.21-7.83-19-18.4-1.47-8.7,3.87-13,11.5-15,4.17-1.07,8.59-1.34,12.6-2.82,13.09-4.84,26.83-6.32,40.4-8.68C1154.6,477.24,1164.5,475.57,1175.51,473.69Z" transform="translate(-547.79 -120.14)"/><path class="cls-1" d="M1128,559c1.79,2.74,4.07,5,4.75,7.69a7.91,7.91,0,0,1-1.93,6.57c-4.32,3.84-4.73,8.18-3.19,13.26s.74,6.6-4.68,6.56a121.11,121.11,0,0,1-14.58-1.31c-11.37-1.44-22.71-3.2-34.1-4.48-16.51-1.86-33.06-3.36-49.58-5.18-1.07-.12-2.79-1.65-2.85-2.62-.49-7.25-.68-14.53-.87-21.8-.07-2.56,1.22-3.11,3.65-2.7q24.4,4.11,48.85,8c12.36,1.92,24.75,3.66,37.14,5.34a42.18,42.18,0,0,0,8.41.16c5.34-.33,6.79-1.68,8.23-7C1127.46,560.75,1127.7,560.07,1128,559Z" transform="translate(-547.79 -120.14)"/><path class="cls-1" d="M1026,487.87l57.9,3.65c-12,9.16-2.91,31.28,12.62,33.5,12.74,1.82,24.94.05,36.89-4.48,9.85-3.73,19.67-7.57,29.6-11,2.81-1,6-1,9-1.17.93-.05,1.91.88,2.87,1.36-.63.9-1.07,2.29-1.92,2.64-5.83,2.36-11.69,4.73-17.67,6.68s-12.42,3.27-18.52,5.28c-5.47,1.81-9.16,5.61-10,11.73a5.87,5.87,0,0,1-.75,1.49c-7.38-8.4-17.49-9.3-27.28-10.3-22.71-2.3-45.47-4.08-68.2-6.07l-.35,0c-6.39-.57-6.41-.57-6.09-7.17.33-6.93.68-13.86,1.1-20.79C1025.24,491.4,1025.69,489.68,1026,487.87Z" transform="translate(-547.79 -120.14)"/><path class="cls-1" d="M961.63,551.32c.53-2.57.84-4.11,1.14-5.58-.78-1.23-1.61-2.49-2.38-3.79a9.42,9.42,0,0,0-8.12-4.79c-3-.16-6.12.09-9.12-.28-4.12-.52-5.48-2.55-4.68-6.69a85.76,85.76,0,0,1,2.38-9.34,3.27,3.27,0,0,1,2.2-1.77,50.91,50.91,0,0,1,10.1-1c17.18.81,34.35,1.84,51.53,2.82,4.19.24,8.37.57,13,.88,0,3.19,0,6,0,8.87.12,6.1.19,12.21.47,18.31.13,2.71-.54,3.49-3.37,3.13-10.68-1.33-21.38-2.52-32.09-3.45C975.93,548,969.13,548,961.63,551.32Z" transform="translate(-547.79 -120.14)"/><path class="cls-1" d="M983.48,550.1c10.28,1.17,21,2.44,31.65,3.57,2.44.25,3.66,1.19,3.48,3.78-.48,7-.91,14-1.39,21.07-.13,1.84-.94,2.81-3,2.5-10.85-1.63-21.75-3-32.57-4.89a72.29,72.29,0,0,1-12.7-4c-3.73-1.41-5.69-4.38-6-8.52-.1-1.66-.56-3.3-.71-5-.48-5.57.84-7.36,6.36-7.87C973.44,550.39,978.23,550.34,983.48,550.1Z" transform="translate(-547.79 -120.14)"/><path class="cls-1" d="M1135.78,591.73c-3-3.74-4.44-13.68-2.16-17.43a7.25,7.25,0,0,1,4-2.64c7.17-2.11,14.32-4.39,21.62-5.86,8.12-1.65,16.39-2.51,24.6-3.67a10.31,10.31,0,0,1,3.5-.08c2.17.47,5.82.79,6.13,1.94a15,15,0,0,1-.33,9.18c-1.67,3.93-5.27,5.66-9.74,6.49-13.65,2.54-27.21,5.65-40.76,8.76C1140.21,589,1138,590.61,1135.78,591.73Z" transform="translate(-547.79 -120.14)"/><path class="cls-1" d="M1141.24,558.4c3.33-1.35,6.57-3.12,10-4,9.88-2.38,19.85-4.42,29.79-6.54,7.77-1.65,9.25-3.36,9.84-11.41.24-3.22.69-6.43,1-9.65l1.73.14c-.18,3.57-.34,7.13-.57,10.69a8.06,8.06,0,0,1-.58,1.69c-2,6.28-1.85,6.49,4.54,7.65-18.4,4.34-35.77,13.19-55.16,13.12Z" transform="translate(-547.79 -120.14)"/><path class="cls-1" d="M1136,567.28c1-4.51,2.65-6.12,6.58-5.82,11.31.87,21.86-3.05,32.52-6.11,7.52-2.15,15-4.32,22.59-6.34a17.22,17.22,0,0,1,4.31,0l.44,1.52c-2.46,1.21-4.81,2.85-7.4,3.55-10.14,2.77-20.36,5.22-30.55,7.83-6.1,1.56-12.16,3.38-18.32,4.69C1143,567.23,1139.65,567.05,1136,567.28Z" transform="translate(-547.79 -120.14)"/><path class="cls-1" d="M1176,513.62c2.84,6.6,9.58,1,14.81,4.23a32,32,0,0,1-4.42,1.4c-8.67,1.23-17.41,2.07-26,3.62-9.39,1.7-19.1,3-26.49,10.11-2.12,2-3.63,4.73-5.46,7.18-1.13-6.74,2.5-12.52,9.65-14.77,6.46-2,13.1-3.46,19.57-5.44C1163.63,518.1,1169.52,515.87,1176,513.62Z" transform="translate(-547.79 -120.14)"/><path class="cls-1" d="M1023.35,585.16l91.07,10.61c-2.17.36-3.41.8-4.61.72-9.56-.62-19.14-1.18-28.68-2.09-13.85-1.31-27.68-2.86-41.51-4.39-4.53-.5-9-1.17-13.53-2-1.19-.21-2.26-1.17-3.38-1.79Z" transform="translate(-547.79 -120.14)"/><path class="cls-1" d="M921.56,482c-1.19,4.77-2.93,8.9-3.14,13.1-.48,9.83,3.37,14.95,12.48,18.24a44.56,44.56,0,0,1,6.12,2.59c1.61.87,2.5,2.05.64,3.9-2.07,2.05-3.82,4.44-5.83,6.82.3-1.6.56-3.17.88-4.73,1-4.85-.69-7.42-5.56-8.45-3-.63-5.95-1.26-8.91-2-3.4-.83-5.17-3-5.17-6.67,0-6.78.6-13.41,4.72-19.08A34.27,34.27,0,0,1,921.56,482Z" transform="translate(-547.79 -120.14)"/><path class="cls-1" d="M1130,478.58c8.77-2.75,13.9-.14,22.7-2.81a131.08,131.08,0,0,1,12.89-3.33,5.19,5.19,0,0,1,4.13,1.46c2,2.16,1.38,3.48-1.51,4-8.39,1.52-13.18-2.48-21.58-1l-16.36,2.84Z" transform="translate(-547.79 -120.14)"/><path class="cls-1" d="M1022,483.79c1.24-6.61-.84-7.07,3.39-11.46,2-2.06,4,.28,6.74-.65,1.06-.35,3.12.94,4,2.07.47.63.75-.86,0,.12a18.6,18.6,0,0,1-4.2,3.75c-4.41,3.08-4.7,1.13-6.77,6.39a2.56,2.56,0,0,1-2,1.27C1022.59,485.26,1022.17,484.07,1022,483.79Z" transform="translate(-547.79 -120.14)"/><path class="cls-1" d="M958,542.44c-7.26-.91-14.54-1.64-21.74-2.87-1.3-.22-3-2.3-3.26-3.76-1-5.55,1.59-11.7,5.62-13.72-.59,2.78-1.22,5.29-1.65,7.83-.89,5.29,1.36,8.29,6.59,8.72,3.36.28,6.78.1,10.11.57,1.67.23,3.2,1.46,4.79,2.24Z" transform="translate(-547.79 -120.14)"/><path class="cls-1" d="M1174.55,583.56c-12.11,3.48-23.85,8.35-37,10.94C1140.08,589.87,1165.68,582.65,1174.55,583.56Z" transform="translate(-547.79 -120.14)"/><path class="cls-1" d="M1019.47,511.1c.44-6.38.85-13.51,1.5-20.62.1-1.08,1.29-2.05,2-3.07a14.19,14.19,0,0,1,.72,3.38c-.37,8.69-.8,17.37-1.35,26.05-.07,1.06-.94,2.06-1.44,3.09a12.45,12.45,0,0,1-1.35-3.08A45.82,45.82,0,0,1,1019.47,511.1Z" transform="translate(-547.79 -120.14)"/><path class="cls-1" d="M1180.24,559.94l18.86-5.31-3.39,6.92Z" transform="translate(-547.79 -120.14)"/><path class="cls-1" d="M1016,585c-1.08.58-2.35,1.87-3.22,1.64a120.21,120.21,0,0,1-18.09-6.25l20.93,3.22Z" transform="translate(-547.79 -120.14)"/><path class="cls-1" d="M1019.47,542.93c0-6.5,0-13,0-19.49,0-.47.74-.93,1.13-1.39.48.53,1.39,1.1,1.36,1.6-.39,6.45-.92,12.88-1.42,19.33Z" transform="translate(-547.79 -120.14)"/><path class="cls-1" d="M1196.63,565.55c.43,2.1,1.12,4.71,1.47,7.37.69,5.21-.53,6.24-5.21,5.38Z" transform="translate(-547.79 -120.14)"/><path class="cls-1" d="M958.13,546.4,941,543.5l.26-1.69,17.12,2.69Z" transform="translate(-547.79 -120.14)"/><path class="cls-1" d="M1136.63,560.92c-.67,1.36-1.37,2.76-2.07,4.17l-1.12.22q-2.16-4.86-4.33-9.71l.88-.47Z" transform="translate(-547.79 -120.14)"/><path class="cls-1" d="M1179.2,472.8c-4.91,4.5-6.73,4.19-8.08-1C1173.89,470.86,1176.49,470.46,1179.2,472.8Z" transform="translate(-547.79 -120.14)"/><path class="cls-2" d="M1021.49,509.06c-11.68,3.31-23.25,7.55-35.51,7.26a71.22,71.22,0,0,1-18.68-2.48c-7.94-2.37-8.56-9.45-1.88-14.71,6.05-4.77,13.26-5.7,20.48-6.25" transform="translate(-547.79 -120.14)"/><path class="cls-2" d="M1026.53,517.44a76,76,0,0,1-13.38,36.29c-2.61,3.69-5.82,7.48-10.81,6.28s-7.13-5.54-8.17-10.27q-3.54-16,13.23-25.81c4.47-2.62,9-5.08,13.49-7.7" transform="translate(-547.79 -120.14)"/><path class="cls-2" d="M1017.07,497.46c-12.66-3.83-25.67-4.16-38.71-1.89-4.57.8-8.89,3.26-11.59,4.3-6.16,5.9-4.53,11.06,2.3,13a49.07,49.07,0,0,0,22.41,1.44c10.44-1.89,20.73-4.75,31-7.38" transform="translate(-547.79 -120.14)"/><path class="cls-2" d="M1024.14,516.22c-5.65,3.27-11.34,6.48-16.93,9.85-10.66,6.43-14.24,15.3-10.52,25.75,2.87,8.08,8.06,9,13.8,2.45,5.89-6.76,9.22-14.86,11.64-23.3" transform="translate(-547.79 -120.14)"/><path class="cls-3" d="M1022.52,507c-10.31,2.63-20.6,5.49-31,7.38a49.07,49.07,0,0,1-22.41-1.44c-6.83-2-8.46-7.13-2.3-13,2.7-1,7-3.5,11.59-4.3,13-2.27,26-1.94,38.71,1.89" transform="translate(-547.79 -120.14)"/><path class="cls-3" d="M1022.13,531c-2.42,8.44-5.75,16.54-11.64,23.3-5.74,6.59-10.93,5.63-13.8-2.45-3.72-10.45-.14-19.32,10.52-25.75,5.59-3.37,11.28-6.58,16.93-9.85" transform="translate(-547.79 -120.14)"/><path class="cls-3" d="M1039.45,514.87c10.91,2,18.86-.5,23.15-7.11,3.33-5.13.64-8-7.24-7.61-8.08.41-15.38,2.64-22.31,5.46,0,0-6.82,3.8-8.6,7.84S1039.45,514.87,1039.45,514.87Z" transform="translate(-547.79 -120.14)"/><text class="cls-4" transform="translate(33.17 275.37)">Gentle</text><text class="cls-4" transform="translate(2 446.24)">Readers</text><path class="cls-5" d="M977.82,246.28a297,297,0,0,0,9.67,92.41c6.54,24.84,14.45,49.29,28.31,71.65-12.13,8.39-20,20.2-24.73,33.9-2.5,7.29-3,15.28-4.11,23-.16,1.14,1.41,2.54,2.18,3.81,1-1.06,2-2.06,2.91-3.2.32-.42.13-1.19.29-1.76,2.83-9.79,5-19.86,8.7-29.29,4.69-11.8,14.44-19.47,25.24-25.51,12.4-6.93,25.69-10.31,39.43-4.78,19.63,7.91,32.89,21.94,37.55,43.07,1.48,6.67,2.34,13.48,3.47,20.17,6.15,0,7.06-1,6.23-6.5-.48-3.12-.8-6.27-1.29-9.39-2-12.6-6-24.26-15.65-33.19-5.22-4.81-10.57-9.48-15.46-13.85,12.61-13.76,23.62-29.12,31.42-47.58l17.61,23.5,1.85-.34c1.58-5.68,4-11.29,4.52-17.06.79-9.37.49-18.86.28-28.29a91.7,91.7,0,0,0-8.23-36.28c-2.59-5.71-6.58-9.19-13-9.55-3.45-.19-7-1.12-10.31-.66-3.07.42-6.72,1.51-8.76,3.61-8,8.25-12.28,18.69-16,29.46a282.38,282.38,0,0,0-13.73,61.9c-.53,5-1.28,10-2,15.4a48.41,48.41,0,0,0-32.26,2.5c0-3.55-.24-6.86,0-10.12,1.31-15,1.24-30.1-1.67-44.89a345.47,345.47,0,0,0-9.33-36.67,205.92,205.92,0,0,0-36.21-68.16" transform="translate(-547.79 -120.14)"/><path class="cls-5" d="M1052.67,454v-.13a23.32,23.32,0,0,0-4.45.48c-1.42.43-3.4,1.07-3.84,2.15s.15,3.24,1,4.41c5,6.84,6.62,6.8,11.72.13.64-.84,1.34-1.63,1.9-2.51,1.71-2.73.64-4.27-2.27-4.68A22.87,22.87,0,0,0,1052.67,454Z" transform="translate(-547.79 -120.14)"/><path class="cls-5" d="M1067.84,435.74l-5.62,6.64c1.5,1.19,2.87,3.11,4.54,3.42a4.5,4.5,0,0,0,5.55-4.41C1072.34,439.9,1070,438.38,1067.84,435.74Z" transform="translate(-547.79 -120.14)"/><path class="cls-5" d="M1033.85,436.71c-2,2.47-4.06,3.86-4.26,5.47-.39,3.24,2.25,5.07,5.1,5,1.48,0,4.31-2.77,4.1-3.29C1037.86,441.59,1036,439.69,1033.85,436.71Z" transform="translate(-547.79 -120.14)"/><path class="cls-6" d="M984.84,243.59a205.92,205.92,0,0,1,36.21,68.16,345.47,345.47,0,0,1,9.33,36.67c2.91,14.79,3,29.85,1.67,44.89-.29,3.26,0,6.57,0,10.12a48.41,48.41,0,0,1,32.26-2.5c.69-5.36,1.44-10.37,2-15.4a282.38,282.38,0,0,1,13.73-61.9c3.67-10.77,7.92-21.21,16-29.46,2-2.1,5.69-3.19,8.76-3.61,3.34-.46,6.86.47,10.31.66,6.45.36,10.44,3.84,13,9.55a91.7,91.7,0,0,1,8.23,36.28c.21,9.43.51,18.92-.28,28.29-.49,5.77-2.94,11.38-4.52,17.06l-1.85.34L1112,359.24c-7.8,18.46-18.81,33.82-31.42,47.58,4.89,4.37,10.24,9,15.46,13.85,9.68,8.93,13.68,20.59,15.65,33.19.49,3.12.81,6.27,1.29,9.39.83,5.46-.08,6.49-6.23,6.5-1.13-6.69-2-13.5-3.47-20.17-4.66-21.13-17.92-35.16-37.55-43.07-13.74-5.53-27-2.15-39.43,4.78-10.8,6-20.55,13.71-25.24,25.51-3.74,9.43-5.87,19.5-8.7,29.29-.16.57,0,1.34-.29,1.76-.87,1.14-1.93,2.14-2.91,3.2-.77-1.27-2.34-2.67-2.18-3.81,1.1-7.72,1.61-15.71,4.11-23,4.68-13.7,12.6-25.51,24.73-33.9C1001.94,388,994,363.53,987.49,338.69a297,297,0,0,1-9.67-92.41" transform="translate(-547.79 -120.14)"/><path d="M982.64,253c.8,15.46,1,31,2.58,46.37A261.66,261.66,0,0,0,1018.34,403a6.58,6.58,0,0,0,4.56,3.11c1.09,0,2.9-2.32,3.31-3.88a100.62,100.62,0,0,0,1.52-42.52c-3.82-22.51-10.93-44-19.62-65C1001.66,279,994.33,263.94,983,249.7" transform="translate(-547.79 -120.14)"/><path d="M1093.13,306.14a58.36,58.36,0,0,0-2.86,5.47c-3.61,9.55-7.44,19-10.63,28.73-6.16,18.75-10,38-10.37,57.78a6.37,6.37,0,0,0,2,4.26c3.81,3.39,6.63.44,9.08-2.09a125.76,125.76,0,0,0,27.26-43.05c1.29-3.37.76-5.87-.46-8.84-2.85-6.93-5.74-13.86-8.12-20.95C1096.86,320.81,1095.28,314,1093.13,306.14Z" transform="translate(-547.79 -120.14)"/><path d="M1129.16,373.92l1.31-.29c1.08-4.93,2.78-9.81,3.12-14.79a118.9,118.9,0,0,0-6.38-47.32c-4-11.55-11.27-15.47-21.27-15.93-3.5-.15-5.25,1.41-5.68,4.31a34.67,34.67,0,0,0-.3,10.31c3.17,20.37,11.32,38.79,22.74,55.82C1124.59,368.84,1127,371.29,1129.16,373.92Z" transform="translate(-547.79 -120.14)"/><path d="M1052.67,454a22.87,22.87,0,0,1,4-.15c2.91.41,4,1.95,2.27,4.68-.56.88-1.26,1.67-1.9,2.51-5.1,6.67-6.77,6.71-11.72-.13-.84-1.17-1.46-3.24-1-4.41s2.42-1.72,3.84-2.15a23.32,23.32,0,0,1,4.45-.48Z" transform="translate(-547.79 -120.14)"/><path d="M1067.84,435.74c2.19,2.64,4.5,4.16,4.47,5.65a4.5,4.5,0,0,1-5.55,4.41c-1.67-.31-3-2.23-4.54-3.42Z" transform="translate(-547.79 -120.14)"/><path d="M1033.85,436.71c2.19,3,4,4.88,4.94,7.15.21.52-2.62,3.24-4.1,3.29-2.85.1-5.49-1.73-5.1-5C1029.79,440.57,1031.84,439.18,1033.85,436.71Z" transform="translate(-547.79 -120.14)"/><path class="cls-7" d="M983,249.7c11.3,14.24,18.63,29.32,25.08,44.93,8.69,21.05,15.8,42.53,19.62,65a100.62,100.62,0,0,1-1.52,42.52c-.41,1.56-2.22,3.91-3.31,3.88a6.58,6.58,0,0,1-4.56-3.11,261.66,261.66,0,0,1-33.12-103.58c-1.57-15.38-1.78-30.91-2.58-46.37" transform="translate(-547.79 -120.14)"/><path class="cls-8" d="M1093.13,306.14c2.15,7.82,3.73,14.67,5.95,21.31,2.38,7.09,5.27,14,8.12,20.95,1.22,3,1.75,5.47.46,8.84a125.76,125.76,0,0,1-27.26,43.05c-2.45,2.53-5.27,5.48-9.08,2.09a6.37,6.37,0,0,1-2-4.26c.39-19.8,4.21-39,10.37-57.78,3.19-9.7,7-19.18,10.63-28.73A58.36,58.36,0,0,1,1093.13,306.14Z" transform="translate(-547.79 -120.14)"/><path class="cls-8" d="M1129.16,373.92c-2.16-2.63-4.57-5.08-6.46-7.89-11.42-17-19.57-35.45-22.74-55.82a34.67,34.67,0,0,1,.3-10.31c.43-2.9,2.18-4.46,5.68-4.31,10,.46,17.3,4.38,21.27,15.93a118.9,118.9,0,0,1,6.38,47.32c-.34,5-2,9.86-3.12,14.79Z" transform="translate(-547.79 -120.14)"/><text x="-547.79" y="-120.14"/></svg>