<svg id="Layer_1" data-name="Layer 1" xmlns="http://www.w3.org/2000/svg" viewBox="0 0 758.72 645.89"><defs><style>.cls-1,.cls-2,.cls-4{fill:#254d70;}.cls-1{stroke:#e5e5e5;}.cls-1,.cls-2,.cls-4,.cls-5,.cls-6{stroke-miterlimit:10;}.cls-2{font-size:96.41px;}.cls-2,.cls-4,.cls-5,.cls-6{stroke:#954c2e;}.cls-2,.cls-4{stroke-width:2px;}.cls-2,.cls-4,.cls-6{font-family:WistaniaRegular, Wistania;}.cls-3{letter-spacing:0.01em;}.cls-4{font-size:86.43px;}.cls-5{fill:#fff;stroke-width:3px;}.cls-6{font-size:119.86px;}.cls-7{letter-spacing:0.01em;}.cls-8{letter-spacing:-0.01em;}</style></defs><path class="cls-1" d="M704.62,891.7l1.31,2.18c-3.84,2.69-7.43,5.84-11.55,8-14.46,7.49-29.13,14.56-43.66,21.9-43.89,22.16-88.85,41.61-136.8,53.31-9.7,2.37-19.52,4.74-29.68,1.9-4.39-1.23-5.41-3.47-4.44-7.84,2.56-11.55,18.55-20.59,27.25-22.44,6.91-1.47,14.06-2.31,20.65-4.69,17.27-6.24,34.29-13.2,51.42-19.83,30-11.61,60-23,89.87-34.91,10.22-4.09,20-9.45,29.71-14.66,3.59-1.92,15-2.46,18,.28a5.07,5.07,0,0,1,1.28,2.74c3.69,20.89,9.57,41.65,4.1,63.12-1.07,4.2-1.52,8.94-3.83,12.37q-40.14,59.83-80.84,119.31c-5,7.43-10.45,14.62-15.36,22.13-1,1.61-.67,4.14-.95,6.25,2.26-.44,4.91-.29,6.67-1.48,2.15-1.46,3.72-3.91,5.26-6.14q34-49.25,67.9-98.57c5.26-7.66,10.36-15.43,15.53-23.15a4.69,4.69,0,0,1,.69,3.75c-4.46,18.69-8.81,37.4-13.48,56-3.3,13.16-7.19,26.17-10.4,39.35-.5,2,1.23,4.62,1.94,7,1.52-1.71,3.8-3.17,4.47-5.17,11.77-35.31,21.67-71.1,27.44-107.95.86-5.51,1.6-11.39,4.11-16.21,7.71-14.8,16-29.3,24.65-43.6a20.66,20.66,0,0,1,9.44-8.05c14-5.52,28.1-10.91,39.28-21.49,1.68-1.59,2.18-4.44,3.22-6.7-2.34-.31-5-1.47-7-.79-9.26,3.16-18.35,6.83-27.51,10.32l-4.73,1.79-1.53-2c2.89-2.85,5.3-6.63,8.75-8.38,15-7.61,29.18-16.31,40.91-28.51,1.6-1.68,2.08-4.43,3.08-6.68-2.54-.29-5.44-1.5-7.57-.69-8.15,3.11-16.06,6.87-24.06,10.41-2.09.92-4.16,1.89-6.72,3.06,1.5-9.4,6-14.78,13.56-18.62,9.27-4.68,18.05-10.41,26.7-16.2,1.69-1.13,1.83-4.57,2.68-6.94-2.45-.33-5.12-1.42-7.29-.79-3.76,1.08-7.28,3.11-10.77,5-4.53,2.41-8.93,5.06-14.23,8.09,1.17-6.32,3.55-9.86,8.41-13.12,10-6.7,19.19-14.58,28.38-22.37,1.33-1.13.84-4.41,1.19-6.7-2.3,0-5.1-.93-6.79.06-5.38,3.15-10.33,7-15.47,10.56-1.18.81-2.47,1.46-3.71,2.18l-1.35-1.55c1.77-2,3.41-4.21,5.33-6.1,8.47-8.32,17.22-16.36,25.35-25,1.52-1.62.64-5.49.86-8.32-2.45.71-5.35.81-7.26,2.24-4.9,3.67-9.37,7.93-14,12l-1.49-.91c2-6.48,4.25-12.91,6.07-19.44,3.06-11,6.07-22,8.58-33.16.37-1.61-2.16-3.87-3.35-5.83-1.79,1.19-4.36,2-5.24,3.64-6.39,12.1-11.18,24.69-10.53,38.78.13,2.76-.62,5.55-1,8.33l-2-.1c-1.3-4.11-2.15-8.44-4.08-12.23-1-2-3.94-3.1-6-4.6-1.21,2.16-3.72,4.52-3.42,6.45,1.11,7.14,1.55,15.13,5.19,21,5.35,8.56,2.46,15.19-1.26,24-1.66-4.24-3-7.21-4-10.32-2.17-7-3.84-14.12-6.34-21-.75-2.05-3.61-3.33-5.49-5-1.4,2.06-4.06,4.16-4,6.16.54,14.52,2.32,28.77,12.64,40.32,1,1.09,2,3.13,1.61,4.28-2,6.25-4.46,12.36-7.25,19.84C776,810.41,776.5,797,763.4,789.41c0,4.71-.81,8,.14,10.59,3.25,9,6.85,17.84,10.83,26.5,3.18,6.91,1.24,19-5,24.84-1.05-4.05-1.79-7.93-3.05-11.64-2.48-7.28-4.94-14.59-8-21.61-1-2.17-4-3.42-6-5.09-.71,2.46-2.13,4.94-2,7.36a91.34,91.34,0,0,0,11.27,40c3.92,7.23,2.69,12.47-4.25,19.21-.54-2.54-.82-4.74-1.48-6.82-1.45-4.54-2.75-9.19-4.83-13.45-.78-1.61-3.53-2.26-5.38-3.34-.95,1.89-3,4-2.69,5.63,1.79,9.77,4.29,19.42,6.16,29.18.57,3,.84,6.61-.35,9.21-3.64,8-8,15.59-12.2,23.31-1.08,2-2.45,3.86-3.69,5.78.53-17.87,2.15-35.1,4.26-52.27q6.43-52.22,13.37-104.37a12.83,12.83,0,0,1,3-6.59C766.71,751,781.15,737,793.56,721.41A153.74,153.74,0,0,0,823.4,657.2c.52-2.41-.95-5.24-1.5-7.87-2.39.82-5.53.95-7.06,2.58-11,11.72-22.35,23.18-32.16,35.84-7.93,10.23-13.86,22-21.31,34.14,3.9-14,7.53-27.06,11.16-40.09.78-2.82,1.38-5.7,2.4-8.43a7.22,7.22,0,0,1,2.71-3.21c5.75-3.73,11.79-7,17.39-11,8.69-6.12,17.49-12.19,25.55-19.1,9-7.7,8.92-13.59,1.42-22.5a25.25,25.25,0,0,1-4.13-6.12c-3-7.09-8.35-11.22-16-10.39-5,.54-9.76,2.81-14,4.1-2-2.11-4.34-6.54-6.46-6.43-3.06.16-7,3-8.73,5.77-8.06,12.83-14.89,27.19-9.24,42,5.76,15.07,3.92,28.52-1,42.68-2.2,6.34-3.75,12.91-5.31,18.4-3-11.45-6.22-23.26-9.3-35.09a9.68,9.68,0,0,1,.17-3.54c.55-4,1.38-8,1.68-12.07.27-3.72-.69-7.64.09-11.2,2.57-11.6,5.38-23.17,8.65-34.6,6.58-23.06,3.11-45.08-6.25-66.57-.57-1.29-2.29-2.07-3.47-3.1-.85,1.06-2.22,2-2.46,3.2-2,10-4.46,20-5.43,30.14-.92,9.56-.2,19.28-.2,29.31-8-9-15.29-17.2-22.77-25.23-1.38-1.48-3.71-2.08-5.6-3.08-.7,1.86-1.51,3.68-2,5.57a12.45,12.45,0,0,0-.09,3.12c-.59,29.59,11.7,55.09,25.28,80.23,3.55,6.58,7.84,13.11,9.67,20.21,5.43,21,6.82,42.26,1.79,63.8C737,790.87,732.19,833.83,729.23,877a50.94,50.94,0,0,1-.86,5.16c-1.58-1.27-2.42-2.53-2.49-3.84-.84-15-2.26-30-2.14-44.93.16-20,4.2-39.93.71-60-.45-2.57.84-5.66,2-8.24,4.5-10.31,10.23-20.19,13.59-30.84,2.77-8.77,3.62-18.4,3.71-27.66,0-3.7-4.24-7.43-6.56-11.15-3.57,2.5-7.4,4.71-10.6,7.61-1.92,1.73-2.85,4.55-4.56,7.46-5.27-12.92-9.28-16.82-15.87-14.39-5.11,1.88-11.41,4.48-13.83,8.69-3,5.31-2.7,12.59-3.84,19.19a33.09,33.09,0,0,0-5.8-2.69,25.32,25.32,0,0,0-8.54-1.26c-6.66.42-9.87,4.52-7.34,10.61,2.09,5,5.21,10.6,9.51,13.52,10.28,7,21.38,12.82,32.46,18.51,3.91,2,6.86,3.94,7,8.49.53,13.5,1.16,27,1.32,40.51.07,6-.88,12.06-1.37,18.08L714,830c-1.69-4-3.13-8.06-5.1-11.88-4.29-8.34-8.85-16.53-13.29-24.78-3.13-5.84-6.91-11.43-9.26-17.57-8.76-23-27-35.39-48.32-44.52a5.52,5.52,0,0,0-5,.85c-.92,1-.93,3.48-.41,5,1.59,4.74,3.46,9.4,5.5,14Q651,780,680.91,790.75a13.06,13.06,0,0,1,6.45,5.36c6.24,11.06,12.09,22.35,17.95,33.62,1,1.85,1.34,4,2.51,7.64a23.49,23.49,0,0,1-2.74-2.41c-17.36-24.83-42.51-35.36-71.47-38.71-2.18-.25-4.54,1.06-6.82,1.65a54.65,54.65,0,0,0,2.35,6.62c.61,1.25,2,2.09,3,3.2,12.57,14.68,25.11,29.38,37.92,44.37-1.92.95-3.72,2-5.62,2.75-18,7.31-36,14.39-53.91,22-6.67,2.82-12.8,7-19.73.8-.79-.7-2.42-.41-3.64-.69C583.06,876,579,875.15,575,874c-10.1-2.82-15.49-11.59-22.76-18-9.38-8.34-19.39-15.63-33.14-10.56-3.57,1.32-4.33-1-5.12-3.53-3.31-10.78-6.52-21.59-10-32.31q-19-58.4-38-116.75c-.83-2.56-2.08-5.53-1.49-7.9,4-15.85,6.16-32.21,20.74-43.6,10.28-8,17.59-19,17.4-33.3,0-1.36,2.16-3.45,3.75-4,13.72-5,27.59-9.65,41.32-14.66,3.62-1.32,4.81.44,6.23,3.08,5,9.19,12.78,13.69,23.18,12.82a125.8,125.8,0,0,0,18.5-3c10.2-2.41,19.24-.68,28,5.16,4.19,2.79,9.56,3.76,14.21,6,2.19,1,4.85,2.61,5.74,4.62,4.22,9.55,7.79,19.38,11.79,29,7.67,18.48,15.36,37,23.38,55.3.8,1.83,4,2.63,6,3.91.26-2.59,1.48-5.57.63-7.73-8.34-21.15-16.67-42.33-25.74-63.18-7.23-16.62-15-33.06-23.54-49-3.82-7.13-10.13-12.93-15.69-19.82,7.21-.38,13.52,1.68,17.43,7,6.88,9.34,14.24,18.8,18.73,29.35,9.3,21.88,16.77,44.53,25.16,66.81a213.73,213.73,0,0,0,9.09,21.29c1,2,4.28,3,6.52,4.39.28-2.58,1.44-5.46.69-7.69-2.27-6.71-5.49-13.09-8-19.74-6.61-17.82-12.77-35.8-19.57-53.54-5.68-14.82-11.67-29.49-22.09-41.94-7.3-8.72-15.8-14.47-27.46-13.39a97.46,97.46,0,0,0-20.89,3.8c-18.27,5.88-36.33,12.4-54.44,18.78-37.21,13.13-74.45,26.15-111.55,39.58-15.49,5.61-30.95,11.63-41,26-3.22,4.62-5.78,10.19-10.06,13.49-11.55,8.92-10,19.77-6.46,31.39.67,2.2,1.18,4.44,1.77,6.67,8.08,30.47,16.26,60.93,24.23,91.44C409.38,816.4,415,843.05,423,868.93c9.47,30.48,21.43,60.17,31.37,90.51,3.86,11.81,7.27,21.18,21.59,24.79,10.41,2.62,20,4.67,30.53,2.63,38.64-7.5,74.93-21.92,110.5-38.11,27-12.28,53.46-25.66,80-39,5.28-2.65,9.73-7,14.31-11,3.62-3.09,5.65-7.35,2.68-11.66-3.18-4.65-8.15-4.56-13-2.48-7.29,3.13-14.61,6.21-21.74,9.67-22.75,11-45.31,22.41-68.15,33.22-27.22,12.9-55.08,24.15-84.75,30.28-7,1.43-14,2.67-20.78,4.58-1.78.49-3,3.14-4.42,4.8,1.8.95,3.57,2,5.44,2.79a4.38,4.38,0,0,0,2.47-.12c14.43-3.41,29.08-6.08,43.22-10.42,41.11-12.62,79.2-32.29,117.46-51.52C681.18,902.18,693,897.1,704.62,891.7Z" transform="translate(-236.28 -540.67)"/><path class="cls-1" d="M704.62,891.7c-11.65,5.4-23.44,10.48-34.9,16.25-38.26,19.23-76.35,38.9-117.46,51.52-14.14,4.34-28.79,7-43.22,10.42a4.38,4.38,0,0,1-2.47.12c-1.87-.79-3.64-1.84-5.44-2.79,1.45-1.66,2.64-4.31,4.42-4.8,6.82-1.91,13.83-3.15,20.78-4.58,29.67-6.13,57.53-17.38,84.75-30.28,22.84-10.81,45.4-22.22,68.15-33.22,7.13-3.46,14.45-6.54,21.74-9.67,4.82-2.08,9.79-2.17,13,2.48,3,4.31.94,8.57-2.68,11.66-4.58,3.91-9,8.31-14.31,11-26.49,13.32-53,26.7-80,39-35.57,16.19-71.86,30.61-110.5,38.11-10.53,2-20.12,0-30.53-2.63-14.32-3.61-17.73-13-21.59-24.79-9.94-30.34-21.9-60-31.37-90.51-8-25.88-13.63-52.53-20.49-78.79-8-30.51-16.15-61-24.23-91.44-.59-2.23-1.1-4.47-1.77-6.67-3.54-11.62-5.09-22.47,6.46-31.39,4.28-3.3,6.84-8.87,10.06-13.49,10-14.41,25.49-20.43,41-26,37.1-13.43,74.34-26.45,111.55-39.58,18.11-6.38,36.17-12.9,54.44-18.78A97.46,97.46,0,0,1,620.9,559c11.66-1.08,20.16,4.67,27.46,13.39,10.42,12.45,16.41,27.12,22.09,41.94,6.8,17.74,13,35.72,19.57,53.54,2.46,6.65,5.68,13,8,19.74.75,2.23-.41,5.11-.69,7.69-2.24-1.43-5.49-2.35-6.52-4.39a213.73,213.73,0,0,1-9.09-21.29c-8.39-22.28-15.86-44.93-25.16-66.81-4.49-10.55-11.85-20-18.73-29.35-3.91-5.3-10.22-7.36-17.43-7,5.56,6.89,11.87,12.69,15.69,19.82,8.54,16,16.31,32.42,23.54,49,9.07,20.85,17.4,42,25.74,63.18.85,2.16-.37,5.14-.63,7.73-2.07-1.28-5.23-2.08-6-3.91-8-18.33-15.71-36.82-23.38-55.3-4-9.65-7.57-19.48-11.79-29-.89-2-3.55-3.58-5.74-4.62-4.65-2.2-10-3.17-14.21-6-8.77-5.84-17.81-7.57-28-5.16a125.8,125.8,0,0,1-18.5,3c-10.4.87-18.22-3.63-23.18-12.82-1.42-2.64-2.61-4.4-6.23-3.08-13.73,5-27.6,9.64-41.32,14.66-1.59.58-3.77,2.67-3.75,4,.19,14.31-7.12,25.26-17.4,33.3-14.58,11.39-16.76,27.75-20.74,43.6-.59,2.37.66,5.34,1.49,7.9q19,58.38,38,116.75c3.48,10.72,6.69,21.53,10,32.31.79,2.57,1.55,4.85,5.12,3.53,13.75-5.07,23.76,2.22,33.14,10.56,7.27,6.46,12.66,15.23,22.76,18,4,1.13,8.1,2,12.17,2.9,1.22.28,2.85,0,3.64.69,6.93,6.18,13.06,2,19.73-.8,17.86-7.58,35.94-14.66,53.91-22,1.9-.78,3.7-1.8,5.62-2.75-12.81-15-25.35-29.69-37.92-44.37-1-1.11-2.36-2-3-3.2a54.65,54.65,0,0,1-2.35-6.62c2.28-.59,4.64-1.9,6.82-1.65,29,3.35,54.11,13.88,71.47,38.71a23.49,23.49,0,0,0,2.74,2.41c-1.17-3.63-1.54-5.79-2.51-7.64-5.86-11.27-11.71-22.56-17.95-33.62a13.06,13.06,0,0,0-6.45-5.36Q651,780,638.1,751.11c-2-4.57-3.91-9.23-5.5-14-.52-1.53-.51-4,.41-5a5.52,5.52,0,0,1,5-.85c21.32,9.13,39.56,21.56,48.32,44.52,2.35,6.14,6.13,11.73,9.26,17.57,4.44,8.25,9,16.44,13.29,24.78,2,3.82,3.41,7.91,5.1,11.88l1.75-.19c.49-6,1.44-12.06,1.37-18.08-.16-13.51-.79-27-1.32-40.51-.18-4.55-3.13-6.49-7-8.49-11.08-5.69-22.18-11.53-32.46-18.51-4.3-2.92-7.42-8.5-9.51-13.52-2.53-6.09.68-10.19,7.34-10.61a25.32,25.32,0,0,1,8.54,1.26,33.09,33.09,0,0,1,5.8,2.69c1.14-6.6.79-13.88,3.84-19.19,2.42-4.21,8.72-6.81,13.83-8.69,6.59-2.43,10.6,1.47,15.87,14.39,1.71-2.91,2.64-5.73,4.56-7.46,3.2-2.9,7-5.11,10.6-7.61,2.32,3.72,6.6,7.45,6.56,11.15-.09,9.26-.94,18.89-3.71,27.66-3.36,10.65-9.09,20.53-13.59,30.84-1.12,2.58-2.41,5.67-2,8.24,3.49,20.09-.55,40-.71,60-.12,15,1.3,30,2.14,44.93.07,1.31.91,2.57,2.49,3.84a50.94,50.94,0,0,0,.86-5.16c3-43.2,7.8-86.16,17.66-128.38,5-21.54,3.64-42.78-1.79-63.8-1.83-7.1-6.12-13.63-9.67-20.21-13.58-25.14-25.87-50.64-25.28-80.23a12.45,12.45,0,0,1,.09-3.12c.54-1.89,1.35-3.71,2-5.57,1.89,1,4.22,1.6,5.6,3.08,7.48,8,14.73,16.27,22.77,25.23,0-10-.72-19.75.2-29.31,1-10.13,3.44-20.13,5.43-30.14.24-1.18,1.61-2.14,2.46-3.2,1.18,1,2.9,1.81,3.47,3.1,9.36,21.49,12.83,43.51,6.25,66.57-3.27,11.43-6.08,23-8.65,34.6-.78,3.56.18,7.48-.09,11.2-.3,4-1.13,8-1.68,12.07a9.68,9.68,0,0,0-.17,3.54c3.08,11.83,6.25,23.64,9.3,35.09,1.56-5.49,3.11-12.06,5.31-18.4,4.91-14.16,6.75-27.61,1-42.68-5.65-14.79,1.18-29.15,9.24-42,1.75-2.8,5.67-5.61,8.73-5.77,2.12-.11,4.47,4.32,6.46,6.43,4.2-1.29,9-3.56,14-4.1,7.65-.83,13,3.3,16,10.39a25.25,25.25,0,0,0,4.13,6.12c7.5,8.91,7.56,14.8-1.42,22.5-8.06,6.91-16.86,13-25.55,19.1-5.6,4-11.64,7.27-17.39,11a7.22,7.22,0,0,0-2.71,3.21c-1,2.73-1.62,5.61-2.4,8.43-3.63,13-7.26,26.06-11.16,40.09,7.45-12.13,13.38-23.91,21.31-34.14,9.81-12.66,21.18-24.12,32.16-35.84,1.53-1.63,4.67-1.76,7.06-2.58.55,2.63,2,5.46,1.5,7.87a153.74,153.74,0,0,1-29.84,64.21C781.15,737,766.71,751,753.33,765.89a12.83,12.83,0,0,0-3,6.59Q743.52,824.64,737,876.85c-2.11,17.17-3.73,34.4-4.26,52.27,1.24-1.92,2.61-3.78,3.69-5.78,4.18-7.72,8.56-15.34,12.2-23.31,1.19-2.6.92-6.23.35-9.21-1.87-9.76-4.37-19.41-6.16-29.18-.3-1.66,1.74-3.74,2.69-5.63,1.85,1.08,4.6,1.73,5.38,3.34,2.08,4.26,3.38,8.91,4.83,13.45.66,2.08.94,4.28,1.48,6.82,6.94-6.74,8.17-12,4.25-19.21a91.34,91.34,0,0,1-11.27-40c-.1-2.42,1.32-4.9,2-7.36,2.07,1.67,5.09,2.92,6,5.09,3.1,7,5.56,14.33,8,21.61,1.26,3.71,2,7.59,3.05,11.64,6.25-5.82,8.19-17.93,5-24.84-4-8.66-7.58-17.53-10.83-26.5-.95-2.62-.14-5.88-.14-10.59,13.1,7.63,12.56,21,18.39,32.05,2.79-7.48,5.24-13.59,7.25-19.84.37-1.15-.64-3.19-1.61-4.28-10.32-11.55-12.1-25.8-12.64-40.32-.07-2,2.59-4.1,4-6.16,1.88,1.64,4.74,2.92,5.49,5,2.5,6.84,4.17,14,6.34,21,1,3.11,2.33,6.08,4,10.32,3.72-8.83,6.61-15.46,1.26-24-3.64-5.83-4.08-13.82-5.19-21-.3-1.93,2.21-4.29,3.42-6.45,2.06,1.5,5,2.58,6,4.6,1.93,3.79,2.78,8.12,4.08,12.23l2,.1c.35-2.78,1.1-5.57,1-8.33-.65-14.09,4.14-26.68,10.53-38.78.88-1.67,3.45-2.45,5.24-3.64,1.19,2,3.72,4.22,3.35,5.83-2.51,11.13-5.52,22.16-8.58,33.16-1.82,6.53-4,13-6.07,19.44l1.49.91c4.64-4,9.11-8.29,14-12,1.91-1.43,4.81-1.53,7.26-2.24-.22,2.83.66,6.7-.86,8.32-8.13,8.64-16.88,16.68-25.35,25-1.92,1.89-3.56,4.06-5.33,6.1l1.35,1.55c1.24-.72,2.53-1.37,3.71-2.18,5.14-3.55,10.09-7.41,15.47-10.56,1.69-1,4.49-.09,6.79-.06-.35,2.29.14,5.57-1.19,6.7-9.19,7.79-18.4,15.67-28.38,22.37-4.86,3.26-7.24,6.8-8.41,13.12,5.3-3,9.7-5.68,14.23-8.09,3.49-1.87,7-3.9,10.77-5,2.17-.63,4.84.46,7.29.79-.85,2.37-1,5.81-2.68,6.94-8.65,5.79-17.43,11.52-26.7,16.2-7.59,3.84-12.06,9.22-13.56,18.62,2.56-1.17,4.63-2.14,6.72-3.06,8-3.54,15.91-7.3,24.06-10.41,2.13-.81,5,.4,7.57.69-1,2.25-1.48,5-3.08,6.68-11.73,12.2-25.9,20.9-40.91,28.51-3.45,1.75-5.86,5.53-8.75,8.38l1.53,2,4.73-1.79c9.16-3.49,18.25-7.16,27.51-10.32,2-.68,4.63.48,7,.79-1,2.26-1.54,5.11-3.22,6.7-11.18,10.58-25.23,16-39.28,21.49a20.66,20.66,0,0,0-9.44,8.05c-8.62,14.3-16.94,28.8-24.65,43.6-2.51,4.82-3.25,10.7-4.11,16.21-5.77,36.85-15.67,72.64-27.44,107.95-.67,2-3,3.46-4.47,5.17-.71-2.33-2.44-4.91-1.94-7,3.21-13.18,7.1-26.19,10.4-39.35,4.67-18.63,9-37.34,13.48-56a4.69,4.69,0,0,0-.69-3.75c-5.17,7.72-10.27,15.49-15.53,23.15q-33.9,49.32-67.9,98.57c-1.54,2.23-3.11,4.68-5.26,6.14-1.76,1.19-4.41,1-6.67,1.48.28-2.11-.1-4.64.95-6.25,4.91-7.51,10.31-14.7,15.36-22.13Q678,1012.83,718.26,953.1c2.31-3.43,2.76-8.17,3.83-12.37,5.47-21.47-.41-42.23-4.1-63.12a5.07,5.07,0,0,0-1.28-2.74c-3-2.74-14.42-2.2-18-.28C689,879.8,679.21,885.16,669,889.25c-29.83,12-59.9,23.3-89.87,34.91C562,930.79,545,937.75,527.7,944c-6.59,2.38-13.74,3.22-20.65,4.69-8.7,1.85-24.69,10.89-27.25,22.44-1,4.37.05,6.61,4.44,7.84,10.16,2.84,20,.47,29.68-1.9,48-11.7,92.91-31.15,136.8-53.31,14.53-7.34,29.2-14.41,43.66-21.9,4.12-2.13,7.71-5.28,11.55-8Zm-262.78-265c-4,1.53-8.33,3.37-12.8,4.9-4.26,1.46-5.1,3.6-3.56,8,6.09,17.54,12.34,35.07,17.39,52.93,13.14,46.4,25.45,93,38.54,139.43,6.9,24.51,14.7,48.78,22.15,73.13,3.45,11.26,8.92,22.17,5.18,34.47C519.6,941,683.84,877,692.27,868.15c-4.25-2.93-8.38-6-12.77-8.66-1.15-.69-3.3-.5-4.67.06-23.74,9.72-47.36,19.76-71.16,29.32-15.67,6.29-31.33,12.83-47.48,17.63-15.94,4.74-24.78.76-31.62-14.32-7.21-15.92-12.89-32.57-18.55-49.13-6.95-20.35-12.69-41.11-19.82-61.38C468.41,731.11,451.33,680.39,441.84,626.66Zm-56.51,65.89c3.49-3.31,6.16-6.13,9.12-8.61,9.14-7.63,16.06-6.63,20.63,4.19,6.89,16.32,12.93,33,18.88,49.7,2.52,7.07.89,10.87-6.21,14.29-9.07,4.36-14.44,11.79-18.77,20.24a11.12,11.12,0,0,0-1.1,7.08c4.41,18,9.12,36,13.74,54,3.19,12.42,2.5,12.35,13.47,5.09,12-7.9,20.67-5.24,26.62,7.77a106.12,106.12,0,0,1,4.22,10.45c6.06,18,12.22,36,17.93,54.08,4.83,15.36,8.39,21.48-11.24,31.91-11.47,6.09-12.34,24.43-1.32,31.36,1.4-15.22,11.51-23,23.66-29.38a12.3,12.3,0,0,0,6.6-12.61,71.11,71.11,0,0,0-2.16-13.52c-4.61-15.61-9.91-31-14.37-46.67C470.9,822.35,457.25,772.65,443,723.14c-7.7-26.65-16.26-53-24.6-79.51-2.13-6.76-4.57-7.29-9.35-1.75-7.08,8.19-13.2,17.27-20.62,25.12C381.19,674.61,381.76,682.49,385.33,692.55Zm72.51,252.24c5.08-4.09,8.91-8,13.48-10.66,8.49-4.93,9.36-5.74,6.35-15.33q-8.91-28.35-18.39-56.5a122.81,122.81,0,0,0-7.45-16.47c-2.1-4.1-5.62-4.76-9.5-2.35-3.71,2.31-7.06,5.32-11,7.13s-4.38,4.19-3.2,7.9c5.4,16.87,10.38,33.88,16.07,50.66C448.27,921.14,453.22,932.81,457.84,944.79Zm130-56.79-.45-2.47c-2.78-.63-5.55-1.33-8.35-1.89a46.83,46.83,0,0,1-26-15.21c-2.37-2.63-4.54-5.55-7.27-7.77-6.17-5-12.53-9.87-21.31-8.82-4.25.5-6.09,2.42-4.42,6.72,4.16,10.71,8,21.53,12.58,32.06,3.26,7.53,8.83,11,16.65,9.08C562.21,896.51,574.93,892,587.79,888ZM403.34,761.32c7.56-5.81,14.79-11.19,21.73-16.91,1-.83,1.3-3.58.77-5q-8.94-24.35-18.39-48.48c-.56-1.41-3.19-3.08-4.6-2.87-6.48.92-15.15,15.63-13.37,22,3.18,11.45,6.42,22.88,9.55,34.34C400.59,750.15,402,755.93,403.34,761.32Zm238.24,44.54c4.19,5.19,7.31,9.57,10.94,13.47,10.9,11.75,21.74,23.59,33.12,34.87,7.42,7.36,17.37,9.93,27.61,12.41C707,838.45,671.86,808.27,641.58,805.86ZM635.27,604.8l1.35-1.44c-5.35-10.76-11.68-20.83-21.42-28.37-6.51-5-13.39-5.61-21.07-2.16-7.2,3.23-14.84,5.49-22.25,8.27-4,1.5-7.94,3.18-11.88,4.78,3.51,8.77,8.64,12.17,17.29,11.3,6.42-.64,12.77-1.91,19.13-3,11.37-2,22-.38,31.53,6.44A81.06,81.06,0,0,0,635.27,604.8ZM457.9,667.52l2.62-.16c2.09-12.83,8.68-22.75,18.29-31.23,4.9-4.32,8.78-10,12.31-15.56,2-3.16,2.35-7.37,3.84-12.46-12.06,3.95-22.33,6.74-32.1,10.75-5.16,2.12-11.81,5.29-11.07,12.19C453.09,643.29,455.79,655.37,457.9,667.52ZM760.7,747c20.6-16.7,51.95-66.54,51.32-81.32C788.48,688.52,771.33,715,760.7,747ZM717.86,589.63c-2.58,13.58,14.86,63.53,25,72.37C746.88,634.67,734.72,599,717.86,589.63Zm-1,166.92,2-.71c-.54-7-.83-14-1.68-21-1.08-8.88-2.41-17.74-4.12-26.52-.39-2-2.47-4.72-4.32-5.26-5.58-1.65-14.12,6-13.18,11.85C698.23,731.12,707.5,743.9,716.89,756.55Zm64.27-103.33.69.52c8.59-11.06,17.39-22,25.62-33.28,1.94-2.67,2-6.72,2.89-10.14-4.1-.78-8.65-3-12.16-1.92s-7.52,5-8.55,8.55C786.16,628.85,783.89,641.1,781.16,653.22Zm-34.07-28.54c7.21-21.89,11.67-43.89,2.42-66.31C744.78,580.31,746.74,602.52,747.09,624.68ZM679.16,781.41c-2.41-14.47-21.94-34.14-34.19-37C646.21,758.68,667.1,777.79,679.16,781.41ZM815.55,621.48l-25.64,32.64,1.17,1.26c8.54-6.53,17.28-12.83,25.57-19.68C822.37,631,821.93,627.45,815.55,621.48Zm-79.8,83.1c-8.27,5.81-13.57,31-9.23,42.37C733,739.66,738.83,713.57,735.75,704.58Zm-61.29,21.47c.27,10.15,18.22,25.13,31.1,26.68C697.55,741,689.32,730.37,674.46,726.05Zm98.43-72.42c3.53-14.94,7.3-29.06,6.14-45.13C769.45,620.76,765.67,643,772.89,653.63Z" transform="translate(-236.28 -540.67)"/><path class="cls-1" d="M441.84,626.66c9.49,53.73,26.57,104.45,44.36,155,7.13,20.27,12.87,41,19.82,61.38,5.66,16.56,11.34,33.21,18.55,49.13,6.84,15.08,15.68,19.06,31.62,14.32,16.15-4.8,31.81-11.34,47.48-17.63,23.8-9.56,47.42-19.6,71.16-29.32,1.37-.56,3.52-.75,4.67-.06,4.39,2.65,8.52,5.73,12.77,8.66C683.84,877,519.6,941,508.74,939.56c3.74-12.3-1.73-23.21-5.18-34.47-7.45-24.35-15.25-48.62-22.15-73.13-13.09-46.41-25.4-93-38.54-139.43-5.05-17.86-11.3-35.39-17.39-52.93-1.54-4.44-.7-6.58,3.56-8C433.51,630,437.88,628.19,441.84,626.66Z" transform="translate(-236.28 -540.67)"/><path class="cls-1" d="M385.33,692.55c-3.57-10.06-4.14-17.94,3.06-25.55,7.42-7.85,13.54-16.93,20.62-25.12,4.78-5.54,7.22-5,9.35,1.75,8.34,26.46,16.9,52.86,24.6,79.51,14.29,49.51,27.94,99.21,42.07,148.77,4.46,15.65,9.76,31.06,14.37,46.67a71.11,71.11,0,0,1,2.16,13.52,12.3,12.3,0,0,1-6.6,12.61c-12.15,6.34-22.26,14.16-23.66,29.38-11-6.93-10.15-25.27,1.32-31.36,19.63-10.43,16.07-16.55,11.24-31.91-5.71-18.11-11.87-36.08-17.93-54.08a106.12,106.12,0,0,0-4.22-10.45c-5.95-13-14.66-15.67-26.62-7.77-11,7.26-10.28,7.33-13.47-5.09-4.62-18-9.33-35.95-13.74-54a11.12,11.12,0,0,1,1.1-7.08c4.33-8.45,9.7-15.88,18.77-20.24,7.1-3.42,8.73-7.22,6.21-14.29-5.95-16.69-12-33.38-18.88-49.7-4.57-10.82-11.49-11.82-20.63-4.19C391.49,686.42,388.82,689.24,385.33,692.55Z" transform="translate(-236.28 -540.67)"/><path class="cls-1" d="M457.84,944.79c-4.62-12-9.57-23.65-13.63-35.62-5.69-16.78-10.67-33.79-16.07-50.66-1.18-3.71-.83-6,3.2-7.9s7.28-4.82,11-7.13c3.88-2.41,7.4-1.75,9.5,2.35a122.81,122.81,0,0,1,7.45,16.47q9.53,28.14,18.39,56.5c3,9.59,2.14,10.4-6.35,15.33C466.75,936.78,462.92,940.7,457.84,944.79Z" transform="translate(-236.28 -540.67)"/><path class="cls-1" d="M587.79,888c-12.86,4-25.58,8.51-38.62,11.7-7.82,1.92-13.39-1.55-16.65-9.08-4.56-10.53-8.42-21.35-12.58-32.06-1.67-4.3.17-6.22,4.42-6.72,8.78-1.05,15.14,3.79,21.31,8.82,2.73,2.22,4.9,5.14,7.27,7.77a46.83,46.83,0,0,0,26,15.21c2.8.56,5.57,1.26,8.35,1.89Z" transform="translate(-236.28 -540.67)"/><path class="cls-1" d="M403.34,761.32c-1.37-5.39-2.75-11.17-4.31-16.9-3.13-11.46-6.37-22.89-9.55-34.34-1.78-6.4,6.89-21.11,13.37-22,1.41-.21,4,1.46,4.6,2.87q9.49,24.12,18.39,48.48c.53,1.43.23,4.18-.77,5C418.13,750.13,410.9,755.51,403.34,761.32Z" transform="translate(-236.28 -540.67)"/><path class="cls-1" d="M641.58,805.86c30.28,2.41,65.43,32.59,71.67,60.75-10.24-2.48-20.19-5.05-27.61-12.41-11.38-11.28-22.22-23.12-33.12-34.87C648.89,815.43,645.77,811.05,641.58,805.86Z" transform="translate(-236.28 -540.67)"/><path class="cls-1" d="M635.27,604.8a81.06,81.06,0,0,1-7.32-4.19c-9.58-6.82-20.16-8.41-31.53-6.44-6.36,1.1-12.71,2.37-19.13,3-8.65.87-13.78-2.53-17.29-11.3,3.94-1.6,7.88-3.28,11.88-4.78,7.41-2.78,15-5,22.25-8.27,7.68-3.45,14.56-2.89,21.07,2.16,9.74,7.54,16.07,17.61,21.42,28.37Z" transform="translate(-236.28 -540.67)"/><path class="cls-1" d="M457.9,667.52c-2.11-12.15-4.81-24.23-6.11-36.47-.74-6.9,5.91-10.07,11.07-12.19,9.77-4,20-6.8,32.1-10.75-1.49,5.09-1.84,9.3-3.84,12.46-3.53,5.57-7.41,11.24-12.31,15.56-9.61,8.48-16.2,18.4-18.29,31.23Z" transform="translate(-236.28 -540.67)"/><path class="cls-1" d="M760.7,747C771.33,715,788.48,688.52,812,665.63,812.65,680.41,781.3,730.25,760.7,747Z" transform="translate(-236.28 -540.67)"/><path class="cls-1" d="M717.86,589.63c16.86,9.32,29,45,25,72.37C732.72,653.16,715.28,603.21,717.86,589.63Z" transform="translate(-236.28 -540.67)"/><path class="cls-1" d="M716.89,756.55c-9.39-12.65-18.66-25.43-21.27-41.61-.94-5.83,7.6-13.5,13.18-11.85,1.85.54,3.93,3.24,4.32,5.26,1.71,8.78,3,17.64,4.12,26.52.85,7,1.14,14,1.68,21Z" transform="translate(-236.28 -540.67)"/><path class="cls-1" d="M781.16,653.22c2.73-12.12,5-24.37,8.49-36.27,1-3.51,5.06-7.47,8.55-8.55s8.06,1.14,12.16,1.92c-.91,3.42-1,7.47-2.89,10.14-8.23,11.32-17,22.22-25.62,33.28Z" transform="translate(-236.28 -540.67)"/><path class="cls-1" d="M747.09,624.68c-.35-22.16-2.31-44.37,2.42-66.31C758.76,580.79,754.3,602.79,747.09,624.68Z" transform="translate(-236.28 -540.67)"/><path class="cls-1" d="M679.16,781.41c-12.06-3.62-32.95-22.73-34.19-37C657.22,747.27,676.75,766.94,679.16,781.41Z" transform="translate(-236.28 -540.67)"/><path class="cls-1" d="M815.55,621.48c6.38,6,6.82,9.49,1.1,14.22-8.29,6.85-17,13.15-25.57,19.68l-1.17-1.26Z" transform="translate(-236.28 -540.67)"/><path class="cls-1" d="M735.75,704.58c3.08,9-2.8,35.08-9.23,42.37C722.18,735.57,727.48,710.39,735.75,704.58Z" transform="translate(-236.28 -540.67)"/><path class="cls-1" d="M674.46,726.05c14.86,4.32,23.09,14.92,31.1,26.68C692.68,751.18,674.73,736.2,674.46,726.05Z" transform="translate(-236.28 -540.67)"/><path class="cls-1" d="M772.89,653.63c-7.22-10.6-3.44-32.87,6.14-45.13C780.19,624.57,776.42,638.69,772.89,653.63Z" transform="translate(-236.28 -540.67)"/><text class="cls-2" transform="matrix(0.97, -0.26, 0.26, 0.97, 243.01, 165.64)">Gen<tspan class="cls-3" x="87.25" y="0">t</tspan><tspan x="106.14" y="0">le</tspan></text><text class="cls-4" transform="matrix(0.97, -0.26, 0.26, 0.97, 295.41, 198.74)">Readers</text><path class="cls-5" d="M592.17,771.85l.51,0a22.17,22.17,0,0,0,.51,2.45,19,19,0,0,0,1.62,4.6,3.66,3.66,0,0,1,0,4.18c-6.44,12.09-13.17,24-18,36.89-.53,1.39-1.39,1.58-2.66,1.52-7.64-.39-15.29-.72-22.94-1.09-5.26-.25-10.52-.67-15.78-.76-3.49-.06-5,2.2-4.37,5.63a7.85,7.85,0,0,0,5.88,6.35,58.49,58.49,0,0,0,11,2c10.16.73,20.35,1.1,30.52,1.76a2.06,2.06,0,0,0,2.45-1.41q9.74-21.12,19.53-42.22a6.65,6.65,0,0,0,.32-1.35l-.55-.19c-.46.8-1,1.58-1.36,2.41-6.11,13.14-12.24,26.28-18.25,39.47a3.08,3.08,0,0,1-3.45,2.15c-5.77-.35-11.56-.45-17.32-.89-6.83-.52-13.65-1.17-20.45-2-3-.38-5.75-1.94-6.9-5-1.36-3.6-.56-5.27,3-5.66a23.76,23.76,0,0,1,3.68-.07c11.75.62,23.51,1.23,35.25,1.94a2.73,2.73,0,0,0,3.2-2c2.39-5.76,4.82-11.51,7.58-17.09,3.53-7.15,7.41-14.12,11.07-21.2a3.67,3.67,0,0,0,.28-2.52c-.81-2.72-1.87-5.38-2.74-8.09a20.45,20.45,0,0,1-.52-3l-.57-.09c-.56,1.05-1.16,2.08-1.69,3.14-5.72,11.49-11.46,23-17.1,34.48a3.27,3.27,0,0,1-3.66,2.17c-8.07-.5-16.15-.76-24.22-1.25a83.72,83.72,0,0,1-12.68-1.31c-5.87-1.28-7.94-7-4.66-12,6.13-9.41,12.41-18.71,18.48-28.16,3.65-5.67,8.38-8.45,15.37-8.05,8.5.48,17,.2,25.56.27a10.11,10.11,0,0,1,1.72.3c0,.32.06.4,0,.46q-9.67,18-19.4,35.95a2.13,2.13,0,0,1-1.67.83c-10.9-.44-21.8-1-32.7-1.43a13,13,0,0,0-1.86.16l0,.64c.82.1,1.63.26,2.45.3q16,.76,32,1.52a2.56,2.56,0,0,0,2.71-1.57c6.38-12,12.86-23.85,19.3-35.77.36-.66.66-1.34,1.11-2.27-1.24-.08-2.09-.17-2.93-.18l-23.19-.12c-2.82,0-5.64-.14-8.45,0-4.12.15-6.82,2.81-8.92,5.89Q538,777.72,528,793.2c-3.7,5.66-1.34,11.76,5.16,13.63a24.28,24.28,0,0,0,5.33,1q16.65.88,33.31,1.54a3.31,3.31,0,0,0,2.44-1.55q5-9.3,9.68-18.74C586.71,783.35,589.41,777.58,592.17,771.85Z" transform="translate(-236.28 -540.67)"/><path class="cls-5" d="M592.17,771.85c-2.76,5.73-5.46,11.5-8.3,17.2q-4.71,9.44-9.68,18.74a3.31,3.31,0,0,1-2.44,1.55q-16.66-.63-33.31-1.54a24.28,24.28,0,0,1-5.33-1c-6.5-1.87-8.86-8-5.16-13.63q10.11-15.45,20.49-30.72c2.1-3.08,4.8-5.74,8.92-5.89,2.81-.1,5.63,0,8.45,0l23.19.12c.84,0,1.69.1,2.93.18-.45.93-.75,1.61-1.11,2.27C584.38,771.12,577.9,783,571.52,795a2.56,2.56,0,0,1-2.71,1.57q-16-.78-32-1.52c-.82,0-1.63-.2-2.45-.3l0-.64a13,13,0,0,1,1.86-.16c10.9.47,21.8,1,32.7,1.43a2.13,2.13,0,0,0,1.67-.83q9.76-17.94,19.4-35.95c0-.06,0-.14,0-.46a10.11,10.11,0,0,0-1.72-.3c-8.52-.07-17.06.21-25.56-.27-7-.4-11.72,2.38-15.37,8.05-6.07,9.45-12.35,18.75-18.48,28.16-3.28,5-1.21,10.74,4.66,12a83.72,83.72,0,0,0,12.68,1.31c8.07.49,16.15.75,24.22,1.25a3.27,3.27,0,0,0,3.66-2.17c5.64-11.52,11.38-23,17.1-34.48.53-1.06,1.13-2.09,1.69-3.14l.57.09a20.45,20.45,0,0,0,.52,3c.87,2.71,1.93,5.37,2.74,8.09a3.67,3.67,0,0,1-.28,2.52c-3.66,7.08-7.54,14.05-11.07,21.2-2.76,5.58-5.19,11.33-7.58,17.09a2.73,2.73,0,0,1-3.2,2c-11.74-.71-23.5-1.32-35.25-1.94a23.76,23.76,0,0,0-3.68.07c-3.61.39-4.41,2.06-3,5.66,1.15,3.05,3.85,4.61,6.9,5,6.8.85,13.62,1.5,20.45,2,5.76.44,11.55.54,17.32.89a3.08,3.08,0,0,0,3.45-2.15c6-13.19,12.14-26.33,18.25-39.47.39-.83.9-1.61,1.36-2.41l.55.19a6.65,6.65,0,0,1-.32,1.35Q590.7,812.92,580.93,834a2.06,2.06,0,0,1-2.45,1.41c-10.17-.66-20.36-1-30.52-1.76a58.49,58.49,0,0,1-11-2,7.85,7.85,0,0,1-5.88-6.35c-.68-3.43.88-5.69,4.37-5.63,5.26.09,10.52.51,15.78.76,7.65.37,15.3.7,22.94,1.09,1.27.06,2.13-.13,2.66-1.52,4.87-12.85,11.6-24.8,18-36.89a3.66,3.66,0,0,0,0-4.18,19,19,0,0,1-1.62-4.6,22.17,22.17,0,0,1-.51-2.45Z" transform="translate(-236.28 -540.67)"/><text class="cls-6" transform="translate(0.5 609.55)">I<tspan class="cls-7" x="37.88" y="0">n</tspan><tspan class="cls-8" x="72.76" y="0">k</tspan><tspan x="101.28" y="0">woven for Gen</tspan><tspan class="cls-7" x="489.99" y="0">t</tspan><tspan x="513.48" y="0">leReaders</tspan></text></svg>